<?xml version="1.0" encoding="utf-8"?>
<!-- Generator: Adobe Illustrator 28.3.0, SVG Export Plug-In . SVG Version: 6.00 Build 0)  -->
<svg version="1.1" id="Layer_1" xmlns="http://www.w3.org/2000/svg" xmlns:xlink="http://www.w3.org/1999/xlink" x="0px" y="0px"
	 viewBox="0 0 183.9 144.7" style="enable-background:new 0 0 183.9 144.7;" xml:space="preserve">
<style type="text/css">
	.st0{fill:#46A164;}
	.st1{fill:#1C6433;}
	.st2{fill:#137542;}
	.st3{fill:#27824C;}
	.st4{fill:#379157;}
	.st5{fill:#006838;}
</style>
<path class="st0" d="M160.3,62.7c-0.8,1.4-1.6,2.8-2.4,4.2c1.1-1.2,2.3-2.3,3.5-3.4c0.8-1.1,1.7-2.2,2.6-3.2
	c-0.7,0.4-1.3,0.8-1.9,1.2C161.4,61.8,160.8,62.3,160.3,62.7L160.3,62.7z"/>
<path class="st0" d="M146.5,58.4c1.1-2.6,2.7-6.5,3.6-8.6l2-4.9c-1.8,2.3-3.3,4.8-4.8,7.4C147.1,54.3,146.8,56.3,146.5,58.4
	L146.5,58.4z"/>
<path class="st0" d="M133.6,67.6c1.1-4.3,1.9-8.7,2.7-13.1c-0.9,1.8-1.9,3.6-2.9,5.5C133.7,62.5,133.7,65.1,133.6,67.6L133.6,67.6z"
	/>
<path class="st0" d="M142.1,55.2c2.6-5.9-0.8-4.3,0.3-10.8c0.1-1-1.3,1.3-3.3,5.1c0.4,5.4,0.3,10.8-0.3,16c0.5-1.7,1-3.4,1.4-5.1
	c0.3,1.4,0.4,2.9,0.4,4.3c1.6-5.9,3.4-11.7,5.2-17.5C144.5,49.9,143.3,52.6,142.1,55.2L142.1,55.2z"/>
<path class="st0" d="M157.2,60.7c1.6-1.8,3.2-3.4,5-5c-2.9,1.2-5.4,3-7.7,4.9c3.6-4.4,7.4-8.6,11.4-12.6c-4.6,2.4-8.6,5.6-12.3,9.1
	c0.7-0.9,1.4-1.9,2.2-2.8c-0.9,0.4-1.7,1-2.4,1.5c4-5.2,7.8-10.5,11.4-16c-6.4,5.9-12.4,12.2-18.3,18.7c-0.9,5.7-1.8,11.4-2.9,17.1
	c2.1-3.7,5.5-9.4,7.3-12.4l4.1-6.8c-1.4,5.1-3.4,10-5.5,14.9c-0.7,1.5-1.4,3-2.1,4.5c2.3-3.3,4.7-6.4,7.5-9.3c0,0.1-0.1,0.2-0.1,0.2
	c1-1.1,2.1-2.1,3.1-3.2c-1.1,0.6-2.2,1.2-3.3,1.8c1.8-1.6,3.9-3.1,6.1-4.4c0.5-0.5,0.9-1.1,1.4-1.6c-0.2,0.3-0.4,0.7-0.6,1
	c1.6-1,3.2-2,4.8-2.9c0.6-0.7,1.2-1.4,1.9-2.1C164.7,56.8,160.8,58.6,157.2,60.7L157.2,60.7z"/>
<path class="st0" d="M154.1,68.8c0.9-1.2,1.8-2.3,2.8-3.4c-0.7,0.6-1.5,1.3-2.2,1.9C154.4,67.8,154.3,68.3,154.1,68.8L154.1,68.8z"
	/>
<path class="st0" d="M130,57.9c0.4,2.2,0.8,4.3,1,6.5c0,0,0,0,0,0c0.6-3.4,1.1-6.9,1.4-10.4c0.4,1.6,0.7,3.2,0.9,4.8
	c1.2-3.1,2.5-6.1,3.9-9.1c0.3-2,0.6-3.9,0.9-5.9c-1.6,2.3-3,4.7-4.4,7.2C132.3,53.2,131.1,55.5,130,57.9L130,57.9z"/>
<path class="st0" d="M127,46.4c2.6-8.3,5.7-16.4,9.2-24.5c-5.2,6.2-9.3,13-12.5,20.2c0.5-1.8,0.9-3.5,1.5-5.3
	c-1,1.1-1.9,2.4-2.7,3.6c2.8-9.8,5.3-19.6,7.3-29.6c-5.9,12.3-11.1,25-15.8,37.7c0.1-4.4,0.2-11.3,0.3-15l0.1-8.3
	c-1.6,5.3-2.4,10.8-3.1,16.3c-0.2,1.7-0.4,3.4-0.6,5.2c-0.2-4.2-0.7-8.3-1.6-12.4c-0.2,0.8-0.3,1.6-0.4,2.4c-0.4-4.3-1.1-8.5-2-12.7
	c-0.1,3-0.2,6-0.3,9.1c0.4-1.3,0.8-2.5,1.2-3.7c-1,8.3-0.3,16.4,1,24.5c0.4,2.6,0.9,5.2,1.4,7.8c0.1-2.4,0.3-4.8,0.7-7.2
	c0.4-1.8,0.8-3.7,1.7-5.4c-0.4,2.4-0.3,4.8-0.1,7.2c0.1,1.6,0.3,3.2,0.4,4.9c0.9-7.6,3.2-15.4,5.7-21.6c-0.6,6.3-1.4,12.6-1.7,18.8
	c-0.1,1.2-0.1,2.4-0.1,3.7c0.3,2.3,0.7,4.5,1.3,6.8c-0.8-7,0.5-14.2,2.9-21.1c-0.4,7-0.7,13.9,0.2,20.8c0.3,1.8,0.7,3.5,1.2,5.1
	c0.9-6.1,1.8-12.2,2.1-18.3c0-1.3,0-2.7-0.4-4.1c1.3,2.6,1.5,5.5,1.7,8.2c0.2,2.8,0.2,5.5,0.1,8.2c-0.1,2.8-0.2,5.6-0.5,8.3
	c0,0.1,0,0.2,0,0.3c0-0.1,0-0.3,0.1-0.4c0.6-3.2,1-6.5,1.3-9.6c0.3,1.7,0.6,3.4,0.9,5.1c0,0.2,0.1,0.3,0.1,0.5c0-0.2,0-0.4,0-0.7
	c0.3-10.4-1.8-22.7-3-31.2C125.5,41.9,126.2,44,127,46.4L127,46.4z"/>
<path class="st0" d="M86,83.1c0.4,0.1,0.9,0.3,1.3,0.4c-0.4-0.7-0.8-1.4-1.2-2.2L86,83.1L86,83.1z"/>
<path class="st0" d="M86.3,76.5c0.5,0.7,1,1.4,1.5,2.1c-0.5-0.9-1-1.8-1.5-2.7L86.3,76.5L86.3,76.5z"/>
<path class="st0" d="M143.9,37.1c-2.4,1.6-4.1,4-5.6,6.2c0.2,1,0.3,2,0.4,2.9c0.9-1.9,1.8-3.8,2.8-5.7
	C142.2,39.3,142.9,38.1,143.9,37.1L143.9,37.1z"/>
<path class="st0" d="M129.7,53.6c5.2-9.7,13.8-19.8,19.4-26.9c-5.7,4.6-12.8,11.2-18.3,18.6c1.3-3.4,2.7-6.8,4.4-10.1
	c-3.4,3.3-6,7.3-8.2,11.3c1.1,3.5,2.1,7.4,2.9,11.3c1.1-2.9,2.4-5.8,3.6-8.6C132.3,50.6,131,52.1,129.7,53.6L129.7,53.6z"/>
<path class="st0" d="M86.4,73.9c0.2,0.2,0.5,0.4,0.7,0.6c-0.2-0.3-0.5-0.6-0.7-0.9L86.4,73.9L86.4,73.9z"/>
<path class="st0" d="M87.5,53.6c-0.1,1.9-0.3,3.7-0.6,5.6c1.4,1.8,2.8,3.7,4,5.6c-0.6-1.3-1.1-2.7-1.8-4c0.9,0.8,1.8,1.7,2.5,2.6
	C90.1,60.1,88.8,56.9,87.5,53.6z"/>
<path class="st0" d="M104.6,41.9c0.3-2.1,0.6-4.2,1.1-6.3c-0.3-6.6-1-13.2-2.4-19.7c-1.3-5.2-3-10.3-5.6-15.1
	c2.5,10.2,2.9,20.5,2.7,30.7c-0.1,3.3-0.3,6.6-0.5,9.9c-0.5-3-1.2-5.9-2-8.8c-0.7-2.2-1.6-4.5-2.9-6.5c0.9,3,1.1,6,1.3,9
	c0.1,2,0.2,4.1,0.2,6.2c-2.3-9.3-6.3-18.7-10.3-25.9c1.8,7.8,3.7,15.4,5.1,23.2c0.3,1.5,0.5,3,0.8,4.5c0,2.9-0.2,5.8-0.5,8.7
	c-0.2-8.8-2.9-17.7-6.9-25.8c1.4,7.4,2.6,14.9,2.9,22.4c4.2,6.7,8.1,13.5,11.9,20.4c-0.5-3.4-1.4-8.9-1.8-11.7l-0.9-6.5
	c1.8,4,3,8.2,4.2,12.5c0.4,1.3,0.7,2.7,1,4c-0.2-3.3-0.3-6.6,0-9.9c0.2,0.6,0.4,1.2,0.6,1.8c-0.1-3.4,0-6.8,0.3-10.2
	c1,5.6,1.8,11.4,3,17.2C104.4,58,103.9,50,104.6,41.9L104.6,41.9z"/>
<path class="st0" d="M86.6,66.2c0.7,0.8,1.4,1.7,2,2.6c-0.6-1.3-1.3-2.6-2-3.8C86.7,64.9,86.6,66.2,86.6,66.2z"/>
<path class="st1" d="M161.2,89.8c1.2-2.5,2.4-5,3.9-7.3c1-1.1,1.9-2.2,2.9-3.3c5.1-5.6,10.5-10.9,15.9-16.3
	c-7.1,3.8-15.2,9.4-21.7,15.9c1.1-1.7,2.2-3.3,3.3-4.9c1.7-2.3,3.4-4.7,5.6-6.7c-2.1,1-4,2.3-5.7,3.8c-2.2,1.9-4.2,4-6.2,6.2
	c1.5-2.8,3-5.6,4.5-8.4c4.9-8.5,10.4-16.7,17.6-23.7c-4.6,2.6-8.6,5.9-12.3,9.5c-0.3,0.3-0.6,0.6-0.9,0.9c-0.6,0.7-1.3,1.4-1.9,2.1
	c-0.8,0.9-1.6,1.8-2.4,2.7c-0.9,1.1-1.7,2.2-2.6,3.2c-3.5,4.6-6.7,9.3-9.5,14.3c1.9-3.7,3.9-7.3,6-10.9c0.8-1.4,1.6-2.8,2.4-4.2
	c0.4-0.8,0.9-1.6,1.3-2.3c0.2-0.3,0.4-0.7,0.6-1c-0.5,0.5-0.9,1-1.4,1.6c-1.3,1.4-2.6,2.9-3.9,4.4c-0.9,1.1-1.9,2.2-2.8,3.4
	c0.2-0.5,0.4-1,0.6-1.5c0.1-0.2,0.1-0.3,0.2-0.5c0-0.1,0.1-0.2,0.1-0.2c-2.8,2.9-5.3,6.1-7.5,9.3c0.7-1.5,1.4-3,2.1-4.5
	c2.1-4.8,4.2-9.8,5.5-14.9l-4.1,6.8c-1.8,3-5.2,8.7-7.3,12.4c1.1-5.7,2-11.4,2.9-17.1c0-0.1,0-0.1,0-0.2c0.3-2.1,0.6-4.1,0.9-6.2
	c0.7-5.1,1.3-10.2,1.7-15.3c-1.2,3.4-2.3,6.9-3.5,10.4c-1.9,5.8-3.6,11.6-5.2,17.5c0-1.4-0.1-2.9-0.4-4.3c-0.4,1.8-0.9,3.4-1.4,5.1
	c0.6-5.3,0.8-10.6,0.3-16c-0.1-1.1-0.2-2.1-0.4-3.2c-0.1-1-0.2-2-0.4-2.9c0-0.2-0.1-0.4-0.1-0.7c-0.1,0.3-0.1,0.7-0.1,1
	c-0.3,2-0.6,3.9-0.9,5.9c-0.3,1.6-0.5,3.2-0.8,4.9c-0.8,4.4-1.7,8.8-2.7,13.1c0.1-2.5,0.1-5.1-0.2-7.6c0-0.4-0.1-0.8-0.1-1.3
	c-0.2-1.6-0.5-3.2-0.9-4.8c-0.2,3.5-0.7,7-1.4,10.4c0,0,0,0,0,0.1c0,0,0,0,0,0c-0.3-2.2-0.6-4.3-1-6.5c0-0.1,0-0.1,0-0.2
	c-0.8-3.9-1.8-7.8-2.9-11.3c0,0,0-0.1,0-0.1c-0.7-2.3-1.5-4.5-2.2-6.4c1.1,8.4,3.3,20.7,3,31.2c0,0.2,0,0.4,0,0.7
	c0-0.2-0.1-0.3-0.1-0.5c-0.3-1.7-0.6-3.4-0.9-5.1c-0.4,3.1-0.7,6.4-1.3,9.6c0,0.1,0,0.3-0.1,0.4c0-0.1,0-0.2,0-0.3
	c0.2-2.8,0.4-5.5,0.5-8.3c0-2.7,0.1-5.5-0.1-8.2c-0.2-2.7-0.4-5.6-1.7-8.2c0.4,1.4,0.4,2.7,0.4,4.1c-0.3,6.2-1.1,12.2-2.1,18.3
	c-0.5-1.7-0.9-3.4-1.2-5.1c-0.9-6.8-0.6-13.8-0.2-20.8c-2.4,6.8-3.7,14.1-2.9,21.1c-0.6-2.2-1-4.5-1.3-6.8c0-1.2,0.1-2.4,0.1-3.7
	c0.3-6.3,1.1-12.5,1.7-18.8c-2.6,6.2-4.8,14-5.7,21.6c-0.2-1.6-0.3-3.2-0.4-4.9c-0.2-2.4-0.3-4.8,0.1-7.2c-0.9,1.7-1.3,3.6-1.7,5.4
	c-0.4,2.4-0.6,4.8-0.7,7.2c-0.5-2.6-1-5.2-1.4-7.8c-1.3-8.1-2-16.1-1-24.5c-0.5,1.2-0.9,2.5-1.2,3.7c-0.2,0.8-0.5,1.6-0.6,2.4
	c-0.5,2.1-0.8,4.2-1.1,6.3c-0.8,8.1-0.3,16.1,1.1,23.9c-1.2-5.7-2-11.6-3-17.2c-0.3,3.4-0.4,6.8-0.3,10.2c-0.2-0.6-0.4-1.2-0.6-1.8
	c-0.3,3.3-0.2,6.6,0,9.9c-0.3-1.3-0.7-2.7-1-4c-1.2-4.2-2.4-8.4-4.2-12.5l0.9,6.5c0.4,2.9,1.2,8.3,1.8,11.7
	c-3.8-6.9-7.7-13.7-11.9-20.4c-1.6-2.5-3.2-5-4.8-7.4c1.5,4.3,3.1,8.5,4.8,12.7c1.3,3.3,2.7,6.5,4.1,9.7c-0.8-0.9-1.6-1.8-2.5-2.6
	c0.7,1.3,1.2,2.7,1.8,4c-1.2-1.9-2.6-3.8-4-5.6c-2.4-3.2-5.2-6.1-8.3-8.8c2.9,4.8,5.6,9.6,8.1,14.6c0.7,1.3,1.3,2.6,2,3.8
	c-0.6-0.9-1.3-1.7-2-2.6c-1.7-2.1-3.6-4-5.9-5.6c1.7,2.4,3.2,4.9,4.6,7.5c-4.8-4.7-10.5-8.7-15.3-11.6V57c5,4.6,11.6,10.6,16.4,16.7
	c0.2,0.3,0.5,0.6,0.7,0.9c-0.2-0.2-0.5-0.4-0.7-0.6c-0.9-0.8-1.9-1.6-2.9-2.5c0.9,1.5,1.9,3,2.8,4.5c0.5,0.9,1.1,1.8,1.5,2.7
	c-0.5-0.7-1-1.4-1.5-2.1c-0.9-1.2-1.7-2.5-2.7-3.7c-1.4-1.8-2.8-3.5-4.4-5.2c-1.6-1.6-3.2-3.4-5.4-4.4c0.9,0.7,1.7,1.6,2.3,2.4
	c3.7,5,6.8,10.4,9.9,15.7c0.4,0.7,0.8,1.4,1.2,2.2c3.5,1.1,6.9,2.2,10.3,3.4c10.3,3.5,20.5,7.2,30.7,9.3c0.7,0.2,1.4,0.3,2.1,0.4
	c10.8,2.1,21.4,2.3,32.2-1.3c0.6-1.2,1.1-2.3,1.8-3.4c4.3-7.1,9.9-13.4,15.6-19.6C172.5,76.9,165.8,82.7,161.2,89.8L161.2,89.8z"/>
<path class="st1" d="M34.3,104.2c15.2,0.3,14.1,28.4,67.1,39.6c13.8-2.2,26.6-7.6,37.5-15.4C77.9,130.7,66.8,96.9,41.7,96
	c-8.7-0.3-18.2,8.1-24.9,15.6c1.3,1.6,2.7,3.2,4.1,4.7C25,110.3,30.3,104.1,34.3,104.2L34.3,104.2z"/>
<path class="st1" d="M35.3,109.8c-3.4-0.6-7.6,4.7-10.9,10c14.8,14.3,34.6,23.5,56.4,24.9C46.8,130,40.5,110.6,35.3,109.8
	L35.3,109.8z"/>
<path class="st1" d="M167.2,96.2c-0.1-0.1-0.3-0.2-0.4-0.1c-21.6,7.7-42.9,0.8-65.5-6.5C86.7,84.9,71.7,80,56.5,79.3
	c-18.2-0.8-36,10.9-47.7,20.9c-0.1,0.1-0.2,0.3-0.1,0.5c1.5,2.6,3.2,5.1,5,7.5c0.1,0.1,0.2,0.1,0.3,0.2c0.1,0,0.2,0,0.3-0.1
	c7.5-7.6,19.2-17.6,32.9-17c9.2,0.3,16.1,5.3,24,11c12.1,8.7,26.6,19.1,55.5,19.1c6.9,0,14.6-0.6,23.4-1.9c0.1,0,0.2-0.1,0.2-0.1
	c6.8-6.7,12.5-14.3,16.9-22.7C167.3,96.5,167.3,96.4,167.2,96.2L167.2,96.2z M163.5,101.5c-0.3,0.5-0.6,1-0.9,1.5
	c-0.1,0-0.1,0.1-0.2,0.1c-0.2,0-0.3,0-0.4-0.1c-0.1-0.1-0.2-0.2-0.4-0.4l1.9-3.1c0.1,0.4,0.1,0.7,0.1,1.1
	C163.7,101,163.6,101.2,163.5,101.5z M161.4,101.9c-0.1-0.3-0.1-0.6-0.1-0.7c0-0.2,0-0.3,0-0.5c0-0.7,0.1-1.2,0.3-1.7
	c0.2-0.4,0.5-0.7,0.9-0.7c0.1,0,0.3,0,0.4,0.1s0.3,0.2,0.4,0.4L161.4,101.9z M158.9,100.6c0,0.6-0.1,1.2-0.3,1.7
	c-0.2,0.5-0.5,0.8-1,0.8c-0.2,0-0.3,0-0.4-0.1c-0.1-0.1-0.2-0.2-0.4-0.4l1.9-3.1C158.9,99.9,158.9,100.3,158.9,100.6L158.9,100.6z
	 M156.6,101.9c-0.1-0.3-0.1-0.6-0.1-0.7c0-0.2,0-0.3,0-0.5c0-0.5,0.1-0.8,0.2-1.2c0.6-0.1,1.1-0.2,1.6-0.3L156.6,101.9L156.6,101.9z
	 M154.1,100.6c0,0.6-0.1,1.2-0.3,1.7c-0.2,0.5-0.5,0.8-1,0.8c-0.2,0-0.3,0-0.4-0.1c-0.1-0.1-0.2-0.2-0.4-0.4l1.7-2.7
	c0.1,0,0.2,0,0.3,0C154.1,100.1,154.1,100.4,154.1,100.6L154.1,100.6z M151.7,100.1c0.4,0,0.9-0.1,1.3-0.1l-1.2,1.9
	c-0.1-0.3-0.1-0.6-0.1-0.7c0-0.2,0-0.3,0-0.5C151.7,100.4,151.7,100.3,151.7,100.1L151.7,100.1z M149.4,100.6c0,0.6-0.1,1.2-0.3,1.7
	c-0.2,0.5-0.5,0.8-1,0.8c-0.2,0-0.3,0-0.4-0.1c-0.1-0.1-0.2-0.2-0.4-0.4l1.5-2.4c0.2,0,0.4,0,0.5,0
	C149.3,100.4,149.4,100.5,149.4,100.6L149.4,100.6z M146.9,100.3c0.4,0,0.8,0,1.2,0l-1.1,1.7c-0.1-0.3-0.1-0.6-0.1-0.7
	c0-0.2,0-0.3,0-0.5S146.9,100.4,146.9,100.3L146.9,100.3z M144.6,100.6c0,0.6-0.1,1.2-0.3,1.7c-0.2,0.5-0.5,0.8-1,0.8
	c-0.2,0-0.3,0-0.4-0.1c-0.1-0.1-0.2-0.2-0.4-0.4l1.5-2.4c0.2,0,0.3,0,0.5,0C144.5,100.4,144.6,100.5,144.6,100.6L144.6,100.6z
	 M142.2,100.1c0.4,0,0.8,0,1.2,0.1l-1.1,1.7c-0.1-0.3-0.1-0.6-0.1-0.7c0-0.2,0-0.3,0-0.5C142.1,100.5,142.1,100.3,142.2,100.1
	L142.2,100.1z M135,100.6c0,0.6-0.1,1.2-0.3,1.7c-0.2,0.5-0.5,0.8-1,0.8c-0.2,0-0.3,0-0.4-0.1c-0.1-0.1-0.2-0.2-0.4-0.4l1.9-3.1
	C135,99.9,135,100.3,135,100.6L135,100.6z M132.7,101.9c-0.1-0.3-0.1-0.6-0.1-0.7c0-0.2,0-0.3,0-0.5c0-0.7,0.1-1.2,0.3-1.6
	c0.5,0.1,1,0.2,1.5,0.2L132.7,101.9L132.7,101.9z M130.2,100.6c0,0.6-0.1,1.2-0.3,1.7c-0.2,0.5-0.5,0.8-1,0.8c-0.2,0-0.3,0-0.4-0.1
	c-0.1-0.1-0.2-0.2-0.4-0.4l1.9-3.1C130.2,99.9,130.2,100.3,130.2,100.6L130.2,100.6z M129.4,98.4c0.1,0.1,0.3,0.2,0.4,0.4l-1.9,3
	c-0.1-0.3-0.1-0.6-0.1-0.7c0-0.2,0-0.3,0-0.5c0-0.7,0.1-1.2,0.3-1.7c0.2-0.4,0.5-0.7,0.9-0.7c0,0,0,0,0.1,0
	C129.2,98.3,129.3,98.3,129.4,98.4L129.4,98.4z M113.4,94.2C113.4,94.2,113.4,94.2,113.4,94.2c-0.2,0-0.3,0-0.5-0.1c0,0,0,0,0,0
	C113,94.1,113.2,94.2,113.4,94.2L113.4,94.2z M108.4,92.7c0.4,0.1,0.8,0.3,1.2,0.4c0,0.1,0,0.3-0.1,0.4c-0.2,0.5-0.5,0.8-1,0.8
	c-0.2,0-0.3,0-0.4-0.1s-0.2-0.2-0.4-0.4L108.4,92.7L108.4,92.7z M107.5,93c-0.1-0.3-0.1-0.5-0.1-0.7c0.2,0.1,0.3,0.1,0.4,0.1
	C107.8,92.5,107.5,93,107.5,93z M77.7,83.4c0.4,0.1,0.8,0.2,1.3,0.3c0,0.1,0,0.3-0.1,0.4c-0.2,0.5-0.5,0.8-1,0.8
	c-0.2,0-0.3,0-0.4-0.1c-0.1-0.1-0.2-0.2-0.4-0.4L77.7,83.4L77.7,83.4z M77.1,83.3l-0.2,0.4c0-0.2-0.1-0.3-0.1-0.4
	C76.9,83.2,77,83.3,77.1,83.3z M72,82.1c0.3,0.1,0.7,0.1,1,0.2l-0.8,1.3C72,83.3,72,83.1,72,82.9c0-0.2,0-0.3,0-0.5
	C72,82.3,72,82.2,72,82.1L72,82.1z M73.6,82.4c0.3,0.1,0.6,0.1,0.8,0.2c0,0.5-0.1,1-0.2,1.5c-0.2,0.5-0.5,0.8-1,0.8
	c-0.2,0-0.3,0-0.4-0.1s-0.2-0.2-0.4-0.4L73.6,82.4L73.6,82.4z M64.9,82.4c0,0.6-0.1,1.2-0.3,1.7c-0.2,0.5-0.5,0.8-1,0.8
	c-0.2,0-0.3,0-0.4-0.1s-0.2-0.2-0.4-0.4l1.9-3.1C64.8,81.7,64.9,82,64.9,82.4L64.9,82.4z M62.5,83.7c-0.1-0.3-0.1-0.6-0.1-0.7
	c0-0.2,0-0.3,0-0.5c0-0.7,0.1-1.2,0.3-1.7c0-0.1,0.1-0.1,0.1-0.1c0.5,0.1,1,0.2,1.6,0.2L62.5,83.7L62.5,83.7z M50.5,82.4
	c0,0.6-0.1,1.2-0.3,1.7c-0.2,0.5-0.5,0.8-1,0.8c-0.2,0-0.3,0-0.5-0.1c-0.1-0.1-0.2-0.2-0.4-0.4l1.9-3.1C50.5,81.7,50.5,82,50.5,82.4
	L50.5,82.4z M50.1,80.6l-1.9,3c-0.1-0.3-0.1-0.6-0.1-0.7c0-0.2,0-0.3,0-0.5c0-0.7,0.1-1.2,0.3-1.7c0-0.1,0.1-0.2,0.2-0.3
	c0.4-0.1,0.8-0.1,1.3-0.2C49.9,80.4,50,80.4,50.1,80.6z M44.5,82.4c0,0.6-0.1,1.2-0.3,1.7c-0.2,0.5-0.5,0.8-1,0.8
	c-0.2,0-0.3,0-0.5-0.1c-0.1-0.1-0.2-0.2-0.4-0.4l1.9-3.1C44.4,81.7,44.5,82,44.5,82.4L44.5,82.4z M42.1,83.7
	c-0.1-0.3-0.1-0.6-0.1-0.7c0-0.2,0-0.3,0-0.5c0-0.2,0-0.4,0.1-0.6c0.5-0.1,1-0.3,1.5-0.4L42.1,83.7L42.1,83.7z M34.3,84.6
	c-0.2,0.1-0.3,0.2-0.6,0.2C33.9,84.8,34.1,84.7,34.3,84.6z M25.3,91.3c0,0.6-0.1,1.2-0.3,1.7c-0.2,0.5-0.5,0.8-1,0.8
	c-0.2,0-0.3,0-0.5-0.1s-0.2-0.2-0.4-0.4l1.9-3.1C25.3,90.5,25.3,90.9,25.3,91.3L25.3,91.3z M25,89.5l-1.9,3
	c-0.1-0.3-0.1-0.6-0.1-0.7c0-0.2,0-0.3,0-0.5c0-0.2,0-0.4,0.1-0.6C23.6,90.2,24.3,89.8,25,89.5C24.9,89.5,24.9,89.5,25,89.5L25,89.5
	z M19.2,93.2v0.4h-0.5C18.8,93.4,19,93.3,19.2,93.2z M11,100.1c0,0.6-0.1,1.2-0.3,1.7c0,0.1-0.1,0.2-0.2,0.2
	c-0.3-0.4-0.6-0.8-0.8-1.2l0.5-0.7c0.2-0.2,0.5-0.4,0.8-0.6C11,99.7,11,99.9,11,100.1L11,100.1z M23,99.5c0-0.4,0.1-0.8,0.2-1.1
	c0.2-0.4,0.5-0.7,0.9-0.7c0.2,0,0.3,0,0.4,0.1c0.1,0.1,0.2,0.2,0.3,0.3C24.2,98.6,23.6,99.1,23,99.5z M49.4,90.7
	c-0.4-0.1-0.8-0.1-1.2-0.1c0-0.4,0.1-0.7,0.2-1c0.2-0.4,0.5-0.7,0.9-0.7c0.2,0,0.3,0,0.4,0.1s0.3,0.2,0.4,0.4L49.4,90.7z M50.4,90.1
	c0.1,0.2,0.1,0.4,0.1,0.7c-0.2,0-0.3,0-0.5-0.1L50.4,90.1z M69.6,100.2c-0.2-0.1-0.4-0.3-0.6-0.4l0.5-0.7
	C69.6,99.4,69.6,99.7,69.6,100.2C69.6,100.1,69.6,100.1,69.6,100.2L69.6,100.2z M68.6,99.4c-0.4-0.3-0.8-0.5-1.1-0.8
	c0-0.1,0-0.1,0.1-0.2c0.2-0.4,0.5-0.7,0.9-0.7c0.2,0,0.3,0,0.4,0.1s0.3,0.2,0.4,0.4L68.6,99.4z M99.7,116.8
	c-0.5-0.1-0.9-0.3-1.3-0.5c0.2-0.2,0.4-0.4,0.7-0.4c0.2,0,0.3,0,0.4,0.1s0.3,0.2,0.4,0.4L99.7,116.8L99.7,116.8z M103.8,118
	c-0.4-0.1-0.7-0.2-1.1-0.3c0.1-0.4,0.1-0.7,0.2-1c0.2-0.4,0.5-0.7,0.9-0.7c0.2,0,0.3,0,0.4,0.1s0.3,0.2,0.4,0.4L103.8,118L103.8,118
	z M104.9,117.2c0.1,0.3,0.1,0.7,0.1,1c-0.2-0.1-0.5-0.1-0.7-0.1L104.9,117.2z M107.4,118.4c0-0.7,0.1-1.2,0.3-1.7s0.5-0.7,0.9-0.7
	c0.2,0,0.3,0,0.4,0.1s0.3,0.2,0.4,0.4l-1.5,2.3c-0.2,0-0.4-0.1-0.6-0.1C107.4,118.6,107.4,118.5,107.4,118.4z M109.7,119.2
	c-0.4-0.1-0.7-0.1-1.1-0.2l1.1-1.8c0.1,0.4,0.2,0.7,0.2,1.1C109.8,118.7,109.8,118.9,109.7,119.2L109.7,119.2z M121.7,118.4
	c0-0.7,0.1-1.2,0.3-1.7c0.2-0.4,0.5-0.7,0.9-0.7c0.1,0,0.3,0,0.4,0.1s0.3,0.2,0.4,0.4l-1.9,3c-0.1-0.3-0.1-0.6-0.1-0.7
	C121.7,118.7,121.7,118.5,121.7,118.4z M122.1,120.3l1.9-3.1c0.1,0.4,0.1,0.7,0.1,1.1c0,0.6-0.1,1.2-0.3,1.7
	c-0.1,0.2-0.2,0.4-0.3,0.5c-0.4,0-0.8,0-1.2,0C122.2,120.5,122.2,120.4,122.1,120.3L122.1,120.3z M127.8,118.3
	c0-0.7,0.1-1.2,0.3-1.7c0.2-0.4,0.5-0.7,0.9-0.7c0.1,0,0.3,0,0.4,0.1s0.3,0.2,0.4,0.4l-1.9,3c-0.1-0.3-0.1-0.6-0.1-0.7
	C127.8,118.6,127.8,118.4,127.8,118.3z M128.5,120.6c-0.1-0.1-0.2-0.2-0.4-0.4l1.9-3.1c0.1,0.4,0.1,0.7,0.1,1.1
	c0,0.6-0.1,1.2-0.3,1.7c-0.1,0.3-0.3,0.5-0.5,0.6C129.1,120.6,128.8,120.6,128.5,120.6C128.5,120.6,128.5,120.6,128.5,120.6
	L128.5,120.6z M142.1,118.3c0-0.7,0.1-1.2,0.3-1.7c0.2-0.4,0.5-0.7,0.9-0.7c0.1,0,0.3,0,0.4,0.1s0.3,0.2,0.4,0.4l-1.9,3
	c-0.1-0.3-0.1-0.6-0.1-0.7C142.1,118.6,142.1,118.4,142.1,118.3z M144.4,117.1c0.1,0.4,0.1,0.7,0.1,1.1c0,0.4-0.1,0.8-0.2,1.2
	c-0.5,0.1-1,0.1-1.5,0.2L144.4,117.1L144.4,117.1z M146.9,118.8c0-0.2,0-0.4,0-0.5c0-0.7,0.1-1.2,0.3-1.7c0.2-0.4,0.5-0.7,0.9-0.7
	c0.1,0,0.3,0,0.4,0.1s0.3,0.2,0.4,0.4l-1.6,2.6c-0.1,0-0.2,0-0.4,0.1C146.9,119,146.9,118.9,146.9,118.8L146.9,118.8z M149.3,118.8
	c-0.4,0.1-0.8,0.1-1.2,0.2l1.1-1.8c0.1,0.4,0.1,0.7,0.1,1.1C149.3,118.5,149.3,118.6,149.3,118.8z M150,118.6c0-0.1,0-0.2,0-0.3
	c0-0.9-0.2-1.6-0.5-2.2c-0.3-0.5-0.8-0.8-1.4-0.8s-1.1,0.3-1.4,0.8c-0.3,0.5-0.5,1.3-0.5,2.2c0,0.3,0.1,0.6,0.1,0.9
	c-0.4,0.1-0.8,0.1-1.1,0.1c0.1-0.3,0.1-0.6,0.1-1c0-0.9-0.2-1.6-0.5-2.2c-0.3-0.5-0.8-0.8-1.4-0.8s-1.1,0.3-1.4,0.8
	c-0.3,0.5-0.5,1.3-0.5,2.2c0,0.6,0.1,1.1,0.3,1.5c-0.9,0.1-1.7,0.1-2.6,0.2v-4.5h-0.7c-0.4,0.4-0.8,0.6-1.4,0.9v0.6
	c0.3-0.1,0.6-0.2,0.8-0.4c0.2-0.1,0.4-0.2,0.6-0.4v3.8c-1.4,0.1-2.8,0.3-4.1,0.3v-4.9h-0.7c-0.4,0.4-0.8,0.6-1.4,0.9v0.6
	c0.3-0.1,0.6-0.2,0.8-0.4c0.2-0.1,0.4-0.2,0.6-0.4v4.2c-1.1,0.1-2.1,0.1-3.2,0.1c0,0,0,0,0.1-0.1c0.3-0.5,0.5-1.3,0.5-2.2
	s-0.2-1.6-0.5-2.2c-0.3-0.5-0.8-0.8-1.4-0.8s-1.1,0.3-1.5,0.8c-0.3,0.5-0.5,1.3-0.5,2.2s0.2,1.6,0.5,2.2c0,0.1,0.1,0.1,0.1,0.1
	c-1.1,0-2.2,0-3.3-0.1c0.3-0.5,0.5-1.2,0.5-2.2s-0.2-1.6-0.5-2.2c-0.3-0.5-0.8-0.8-1.4-0.8s-1.1,0.3-1.4,0.8
	c-0.3,0.5-0.5,1.3-0.5,2.2s0.2,1.6,0.5,2.1c-1-0.1-1.9-0.1-2.8-0.2v-4.7H118c-0.4,0.4-0.8,0.6-1.4,0.9v0.6c0.3-0.1,0.6-0.2,0.8-0.4
	c0.2-0.1,0.4-0.2,0.6-0.4v3.9c-1.4-0.1-2.8-0.2-4.1-0.4v-4.2h-0.7c-0.4,0.4-0.8,0.6-1.4,0.9v0.6c0.3-0.1,0.6-0.2,0.8-0.4
	c0.2-0.1,0.4-0.2,0.6-0.4v3.4c-0.9-0.1-1.9-0.2-2.8-0.4c0.1-0.3,0.1-0.6,0.1-0.9c0-0.9-0.2-1.6-0.5-2.2c-0.3-0.5-0.8-0.8-1.4-0.8
	s-1.1,0.3-1.4,0.8c-0.3,0.5-0.5,1.3-0.5,2.2c0,0.1,0,0.1,0,0.2c-0.3-0.1-0.6-0.1-0.9-0.2l0,0c0-0.9-0.2-1.6-0.5-2.2
	c-0.3-0.5-0.8-0.8-1.4-0.8s-1.1,0.3-1.4,0.8c-0.2,0.3-0.3,0.8-0.4,1.2c-0.4-0.1-0.8-0.2-1.2-0.3c-0.1-0.3-0.2-0.6-0.3-0.9
	c-0.3-0.5-0.8-0.8-1.4-0.8c-0.6,0-1,0.2-1.3,0.7c-5.5-1.9-10.2-4.2-14.4-6.7v-3.2h-0.7c-0.4,0.4-0.8,0.6-1.4,0.9v0.6
	c0.3-0.1,0.6-0.2,0.8-0.4c0.2-0.1,0.4-0.2,0.6-0.4v2.1c-3.3-2-6.2-4-9-6h1.5v-0.6h-1.3v-5h-0.7c-0.4,0.3-0.8,0.6-1.4,0.9v0.6
	c0.3-0.1,0.6-0.2,0.8-0.3c0.2-0.1,0.4-0.2,0.6-0.4v4.3h-0.2c-0.3-0.2-0.7-0.5-1.1-0.8c-0.5-0.3-0.9-0.7-1.4-1c0-0.2,0.1-0.3,0.1-0.5
	c0-0.9-0.2-1.6-0.5-2.2s-0.8-0.8-1.4-0.8s-1.1,0.3-1.4,0.8c0,0.1-0.1,0.2-0.1,0.2c-2.2-1.5-4.5-2.9-6.7-4.1h0.6v-0.6h-1.3v-5h-0.7
	c-0.4,0.3-0.8,0.6-1.4,0.9V90c0.3-0.1,0.6-0.2,0.8-0.3c0.2-0.1,0.4-0.2,0.6-0.4v4.2c-1.3-0.6-2.7-1.2-4.1-1.6v-3.3H54
	c-0.4,0.3-0.8,0.6-1.4,0.9V90c0.3-0.1,0.6-0.2,0.8-0.3c0.2-0.1,0.4-0.2,0.6-0.4v2.3c-0.9-0.2-1.8-0.4-2.7-0.6c0-0.7-0.2-1.3-0.5-1.8
	c-0.3-0.5-0.8-0.8-1.5-0.8s-1.1,0.3-1.5,0.8c-0.2,0.3-0.3,0.8-0.4,1.3c-0.1,0-0.1,0-0.2,0c-0.4,0-0.7,0-1.1,0c-0.8,0-1.6,0-2.4,0.1
	v-2.1h-0.7c-0.4,0.3-0.8,0.6-1.4,0.9V90c0.3-0.1,0.6-0.2,0.8-0.3c0.2-0.1,0.4-0.2,0.6-0.4v1.4c-1.4,0.2-2.8,0.4-4.1,0.7v-2.8h-0.7
	c-0.4,0.3-0.8,0.6-1.4,0.9V90c0.3-0.1,0.6-0.2,0.8-0.3c0.2-0.1,0.4-0.2,0.6-0.4v2.3c-1.4,0.4-2.8,0.8-4.1,1.4v-4.4h-0.7
	c-0.4,0.3-0.8,0.6-1.4,0.9V90c0.3-0.1,0.6-0.2,0.8-0.3c0.2-0.1,0.4-0.2,0.6-0.4v4c-0.2,0.1-0.5,0.2-0.7,0.3h-0.7v0.3
	c-2.4,1.1-4.7,2.5-6.8,4c-0.3-0.4-0.7-0.6-1.2-0.6c-0.6,0-1.1,0.3-1.5,0.8c-0.3,0.5-0.5,1.2-0.5,2.2c-0.8,0.6-1.6,1.3-2.3,1.9v-4.7
	h-0.7c-0.4,0.3-0.8,0.6-1.4,0.9v0.6c0.3-0.1,0.6-0.2,0.8-0.3c0.2-0.1,0.4-0.2,0.6-0.4v4.3h-1.4v0.6h1c-1.7,1.5-3.3,3-4.7,4.4
	c-1.1-1.5-2.1-3.2-3.2-4.8c0.1-0.1,0.2-0.2,0.3-0.3c0.3-0.5,0.5-1.3,0.5-2.2c0-0.5-0.1-0.9-0.2-1.2c2-1.6,4.1-3.2,6.3-4.8h3.4v-0.6
	h-1.4v-0.8c0.8-0.5,1.6-1.1,2.3-1.6c0,0.1,0,0.1,0,0.2c0,0.9,0.2,1.6,0.5,2.2c0.3,0.5,0.8,0.8,1.5,0.8s1.1-0.3,1.5-0.8
	c0.3-0.5,0.5-1.3,0.5-2.2s-0.2-1.6-0.5-2.2c0,0,0,0-0.1-0.1c2.4-1.4,4.9-2.7,7.4-3.9c0.2,0.1,0.5,0.2,0.7,0.2c0.6,0,1.1-0.3,1.5-0.8
	c0.1-0.1,0.1-0.3,0.2-0.4c1-0.4,2-0.8,3-1.2v1.7H37v0.6h3.4v-0.6H39v-1.9c0.8-0.3,1.6-0.5,2.4-0.8c0,0.1,0,0.3,0,0.4
	c0,0.9,0.2,1.6,0.5,2.2c0.3,0.5,0.8,0.8,1.5,0.8s1.1-0.3,1.5-0.8c0.3-0.5,0.5-1.3,0.5-2.2c0-0.5-0.1-0.9-0.2-1.3
	c0.9-0.2,1.8-0.4,2.7-0.5c-0.2,0.5-0.4,1.1-0.4,1.9c0,0.9,0.2,1.6,0.5,2.2c0.3,0.5,0.8,0.8,1.5,0.8s1.1-0.3,1.5-0.8
	c0.3-0.5,0.5-1.3,0.5-2.2s-0.2-1.6-0.5-2.2c0,0-0.1-0.1-0.1-0.1c0.9-0.1,1.8-0.2,2.6-0.2c-0.2,0.2-0.5,0.4-0.8,0.5v0.6
	c0.3-0.1,0.6-0.2,0.8-0.3c0.2-0.1,0.4-0.2,0.6-0.4v4.3h-1.4v0.6H56v-0.6h-1.3V80c0.6,0,1.2,0,1.8,0c0.5,0,1,0.1,1.4,0.1
	c-0.2,0.1-0.3,0.3-0.6,0.3v0.6c0.3-0.1,0.6-0.2,0.8-0.3c0.2-0.1,0.4-0.2,0.6-0.4v4.3h-1.4v0.6h3.4v-0.6h-1.3v-4.4
	c0.9,0.1,1.8,0.1,2.7,0.2c-0.3,0.5-0.4,1.1-0.4,1.9c0,0.9,0.2,1.6,0.5,2.2c0.3,0.5,0.8,0.8,1.4,0.8s1.1-0.3,1.4-0.8
	c0.3-0.5,0.5-1.3,0.5-2.2c0-0.6-0.1-1.1-0.2-1.5c1,0.1,1.9,0.3,2.9,0.4v3.3h-1.4v0.6h3.4v-0.6h-1.3v-3.2c0.8,0.1,1.6,0.3,2.4,0.4
	c0,0.2-0.1,0.3-0.1,0.5c0,0.9,0.2,1.6,0.5,2.2c0.3,0.5,0.8,0.8,1.4,0.8s1.1-0.3,1.4-0.8c0.3-0.5,0.4-1.1,0.5-1.8
	c0.3,0.1,0.7,0.2,1,0.2c0.1,0.6,0.2,1.2,0.4,1.6c0.3,0.5,0.8,0.8,1.4,0.8s1.1-0.3,1.4-0.8c0.1-0.2,0.2-0.5,0.3-0.7
	c1,0.2,1.9,0.5,2.9,0.8l0,0h-1.4v0.6h3.4v0c4.6,1.3,9.1,2.8,13.6,4.2c-0.2,0.2-0.5,0.3-0.8,0.5v0.6c0.3-0.1,0.6-0.2,0.8-0.3
	c0.2-0.1,0.4-0.2,0.6-0.4V94h-1.4v0.6h3.4V94h-1.3v-4.2c0.5,0.2,1,0.3,1.5,0.5c0.9,0.3,1.8,0.6,2.6,0.8V94h-1.4v0.6h3.4V94h-1.3
	v-2.7c0.8,0.2,1.6,0.5,2.3,0.8c0,0.8,0.2,1.4,0.5,1.9c0.3,0.5,0.8,0.8,1.4,0.8s1.1-0.3,1.4-0.8c0.1-0.2,0.2-0.5,0.3-0.7
	c0.5,0.2,1,0.3,1.5,0.5c0,0.1,0.1,0.2,0.1,0.2c0.3,0.5,0.8,0.8,1.4,0.8c0.3,0,0.6-0.1,0.9-0.3c4.6,1.4,9.2,2.6,13.7,3.6
	c-0.2,0.1-0.3,0.3-0.4,0.5c-0.3,0.5-0.5,1.3-0.5,2.2s0.2,1.6,0.5,2.2c0.3,0.5,0.8,0.8,1.5,0.8s1.1-0.3,1.4-0.8s0.5-1.3,0.5-2.2
	s-0.2-1.6-0.5-2.1c0.6,0.1,1.1,0.2,1.7,0.3c-0.2,0.5-0.4,1.1-0.4,1.8c0,0.9,0.2,1.6,0.5,2.2c0.3,0.5,0.8,0.8,1.4,0.8
	s1.1-0.3,1.4-0.8s0.5-1.3,0.5-2.2c0-0.5-0.1-0.9-0.2-1.3c0.9,0.1,1.9,0.3,2.9,0.4v3.1H137v0.6h3.4v-0.6H139v-3.1
	c0.8,0.1,1.6,0.2,2.4,0.2c0,0.2-0.1,0.4-0.1,0.6c0,0.9,0.2,1.6,0.5,2.2c0.3,0.5,0.8,0.8,1.4,0.8s1.1-0.3,1.4-0.8s0.5-1.3,0.5-2.2
	c0-0.2,0-0.3-0.1-0.4c0.3,0,0.6,0,1,0c0,0.1,0,0.3,0,0.4c0,0.9,0.2,1.6,0.5,2.2c0.3,0.5,0.8,0.8,1.4,0.8s1.1-0.3,1.4-0.8
	s0.5-1.3,0.5-2.2c0-0.2,0-0.3-0.1-0.5c0.3,0,0.6-0.1,1-0.1c0,0.2-0.1,0.4-0.1,0.6c0,0.9,0.2,1.6,0.5,2.2c0.3,0.5,0.8,0.8,1.4,0.8
	s1.1-0.3,1.4-0.8s0.5-1.3,0.5-2.2c0-0.3-0.1-0.6-0.1-0.9c0.4-0.1,0.8-0.1,1.2-0.2c-0.1,0.3-0.2,0.7-0.2,1.1c0,0.9,0.2,1.6,0.5,2.2
	c0.3,0.5,0.8,0.8,1.4,0.8s1.1-0.3,1.4-0.8s0.5-1.3,0.5-2.2c0-0.7-0.1-1.2-0.3-1.7c0.6-0.1,1.1-0.2,1.7-0.4c-0.3,0.5-0.5,1.2-0.5,2.1
	c0,0.9,0.2,1.6,0.5,2.2c0.3,0.5,0.7,0.7,1.2,0.8c-0.9,1.4-1.9,2.9-2.9,4.2c-0.1-0.1-0.1-0.3-0.2-0.4c-0.3-0.5-0.8-0.8-1.4-0.8
	s-1.1,0.3-1.4,0.8c-0.3,0.5-0.5,1.3-0.5,2.2s0.2,1.6,0.5,2.2c0,0,0,0,0,0C154.2,114,152.2,116.4,150,118.6L150,118.6z M156.5,109.5
	c0-0.7,0.1-1.2,0.3-1.7c0.2-0.4,0.5-0.7,0.9-0.7c0.1,0,0.3,0,0.4,0.1s0.3,0.2,0.4,0.4l-1.9,3c-0.1-0.3-0.1-0.6-0.1-0.7
	C156.5,109.8,156.5,109.7,156.5,109.5z M158.8,108.4c0,0.1,0,0.1,0,0.2c-0.2,0.3-0.5,0.6-0.7,0.9L158.8,108.4L158.8,108.4z
	 M164.4,100.1c-0.1-0.6-0.2-1.2-0.4-1.6c-0.1-0.2-0.3-0.4-0.6-0.5c0.9-0.3,1.8-0.5,2.8-0.8C165.6,98.2,165,99.2,164.4,100.1
	L164.4,100.1z"/>
<path class="st1" d="M29.4,88.5h-0.7c-0.4,0.3-0.8,0.6-1.4,0.9V90c0.3-0.1,0.6-0.2,0.8-0.3c0.2-0.1,0.4-0.2,0.6-0.4v4.3h-1.4v0.6
	h3.4v-0.6h-1.3L29.4,88.5L29.4,88.5z"/>
<path class="st1" d="M63.6,88.3c-0.6,0-1.1,0.3-1.4,0.8c-0.3,0.5-0.5,1.3-0.5,2.2s0.2,1.6,0.5,2.2c0.3,0.5,0.8,0.8,1.4,0.8
	s1.1-0.3,1.4-0.8c0.3-0.5,0.5-1.3,0.5-2.2s-0.2-1.6-0.5-2.2S64.3,88.3,63.6,88.3z M62.4,91.8c0-0.2,0-0.3,0-0.5
	c0-0.7,0.1-1.2,0.3-1.7s0.5-0.7,0.9-0.7c0.2,0,0.3,0,0.4,0.1s0.3,0.2,0.4,0.4l-1.9,3C62.5,92.2,62.4,92,62.4,91.8z M64.6,93
	c-0.2,0.5-0.5,0.8-1,0.8c-0.2,0-0.3,0-0.4-0.1s-0.2-0.2-0.4-0.4l1.9-3.1c0.1,0.4,0.2,0.7,0.2,1.1C64.9,91.9,64.8,92.5,64.6,93
	L64.6,93z"/>
<path class="st1" d="M68.4,88.3c-0.6,0-1.1,0.3-1.4,0.8c-0.3,0.5-0.5,1.3-0.5,2.2s0.2,1.6,0.5,2.2c0.3,0.5,0.8,0.8,1.4,0.8
	s1.1-0.3,1.4-0.8c0.3-0.5,0.5-1.3,0.5-2.2s-0.2-1.6-0.5-2.2S69,88.3,68.4,88.3z M67.2,91.8c0-0.2,0-0.3,0-0.5c0-0.7,0.1-1.2,0.3-1.7
	s0.5-0.7,0.9-0.7c0.2,0,0.3,0,0.4,0.1s0.3,0.2,0.4,0.4l-1.9,3C67.3,92.2,67.2,92,67.2,91.8z M69.4,93c-0.2,0.5-0.5,0.8-1,0.8
	c-0.2,0-0.3,0-0.4-0.1s-0.2-0.2-0.4-0.4l1.9-3.1c0.1,0.4,0.2,0.7,0.2,1.1C69.6,91.9,69.5,92.5,69.4,93L69.4,93z"/>
<path class="st1" d="M73.7,88.5H73c-0.4,0.3-0.8,0.6-1.4,0.9V90c0.3-0.1,0.6-0.2,0.8-0.3c0.2-0.1,0.4-0.2,0.6-0.4v4.3h-1.4v0.6H75
	v-0.6h-1.3L73.7,88.5L73.7,88.5z"/>
<path class="st1" d="M78,88.3c-0.6,0-1.1,0.3-1.4,0.8c-0.3,0.5-0.5,1.3-0.5,2.2s0.2,1.6,0.5,2.2c0.3,0.5,0.8,0.8,1.4,0.8
	s1.1-0.3,1.4-0.8c0.3-0.5,0.5-1.3,0.5-2.2s-0.2-1.6-0.5-2.2S78.6,88.3,78,88.3z M76.8,91.8c0-0.2,0-0.3,0-0.5c0-0.7,0.1-1.2,0.3-1.7
	s0.5-0.7,0.9-0.7c0.2,0,0.3,0,0.4,0.1s0.3,0.2,0.4,0.4l-1.9,3C76.8,92.2,76.8,92,76.8,91.8z M78.9,93c-0.2,0.5-0.5,0.8-1,0.8
	c-0.2,0-0.3,0-0.4-0.1c-0.1-0.1-0.2-0.2-0.4-0.4l1.9-3.1c0.1,0.4,0.2,0.7,0.2,1.1C79.2,91.9,79.1,92.5,78.9,93L78.9,93z"/>
<path class="st1" d="M83.3,88.5h-0.7c-0.4,0.3-0.8,0.6-1.4,0.9V90c0.3-0.1,0.6-0.2,0.8-0.3c0.2-0.1,0.4-0.2,0.6-0.4v4.3h-1.4v0.6
	h3.4v-0.6h-1.3L83.3,88.5L83.3,88.5z"/>
<path class="st1" d="M15.1,97.4h-0.7C14,97.7,13.5,98,13,98.2v0.6c0.3-0.1,0.6-0.2,0.8-0.3c0.2-0.1,0.4-0.2,0.6-0.4v4.3H13v0.6h3.4
	v-0.6H15L15.1,97.4L15.1,97.4z"/>
<path class="st1" d="M78,97.2c-0.6,0-1.1,0.3-1.4,0.8c-0.3,0.5-0.5,1.3-0.5,2.2s0.2,1.6,0.5,2.2c0.3,0.5,0.8,0.8,1.4,0.8
	s1.1-0.3,1.4-0.8c0.3-0.5,0.5-1.3,0.5-2.2s-0.2-1.6-0.5-2.2S78.6,97.2,78,97.2z M76.8,100.6c0-0.2,0-0.3,0-0.5
	c0-0.7,0.1-1.2,0.3-1.7s0.5-0.7,0.9-0.7c0.2,0,0.3,0,0.4,0.1s0.3,0.2,0.4,0.4l-1.9,3C76.8,101.1,76.8,100.8,76.8,100.6z M78.9,101.8
	c-0.2,0.5-0.5,0.8-1,0.8c-0.2,0-0.3,0-0.4-0.1c-0.1-0.1-0.2-0.2-0.4-0.4l1.9-3.1c0.1,0.4,0.2,0.7,0.2,1.1
	C79.2,100.7,79.1,101.3,78.9,101.8L78.9,101.8z"/>
<path class="st1" d="M83.3,97.4h-0.7c-0.4,0.3-0.8,0.6-1.4,0.9v0.6c0.3-0.1,0.6-0.2,0.8-0.3c0.2-0.1,0.4-0.2,0.6-0.4v4.3h-1.4v0.6
	h3.4v-0.6h-1.3L83.3,97.4L83.3,97.4z"/>
<path class="st1" d="M89.5,88.9c-0.6,0-1.1,0.3-1.4,0.8c-0.3,0.5-0.5,1.3-0.5,2.2s0.2,1.6,0.5,2.2c0.3,0.5,0.8,0.8,1.4,0.8
	s1.1-0.3,1.4-0.8c0.3-0.5,0.5-1.3,0.5-2.2s-0.2-1.6-0.5-2.2S90.1,88.9,89.5,88.9z M88.3,92.3c0-0.2,0-0.3,0-0.5
	c0-0.7,0.1-1.2,0.3-1.7s0.5-0.7,0.9-0.7c0.2,0,0.3,0,0.4,0.1s0.3,0.2,0.4,0.4l-1.9,3C88.3,92.7,88.3,92.5,88.3,92.3z M90.4,93.5
	c-0.2,0.5-0.5,0.8-1,0.8c-0.2,0-0.3,0-0.4-0.1s-0.2-0.2-0.4-0.4l1.9-3.1c0.1,0.4,0.2,0.7,0.2,1.1C90.7,92.4,90.6,93,90.4,93.5
	L90.4,93.5z"/>
<path class="st1" d="M94.8,89h-0.7c-0.4,0.3-0.8,0.6-1.4,0.9v0.6c0.3-0.1,0.6-0.2,0.8-0.3c0.2-0.1,0.4-0.2,0.6-0.4v4.3h-1.4v0.6h3.4
	v-0.6h-1.3L94.8,89L94.8,89z"/>
<path class="st1" d="M89.5,97.7c-0.6,0-1.1,0.3-1.4,0.8c-0.3,0.5-0.5,1.3-0.5,2.2s0.2,1.6,0.5,2.2c0.3,0.5,0.8,0.8,1.4,0.8
	s1.1-0.3,1.4-0.8c0.3-0.5,0.5-1.3,0.5-2.2s-0.2-1.6-0.5-2.2S90.1,97.7,89.5,97.7z M88.3,101.2c0-0.2,0-0.3,0-0.5
	c0-0.7,0.1-1.2,0.3-1.7s0.5-0.7,0.9-0.7c0.2,0,0.3,0,0.4,0.1s0.3,0.2,0.4,0.4l-1.9,3C88.3,101.6,88.3,101.3,88.3,101.2z M90.4,102.3
	c-0.2,0.5-0.5,0.8-1,0.8c-0.2,0-0.3,0-0.4-0.1c-0.1-0.1-0.2-0.2-0.4-0.4l1.9-3.1c0.1,0.4,0.2,0.7,0.2,1.1
	C90.7,101.3,90.6,101.8,90.4,102.3L90.4,102.3z"/>
<path class="st1" d="M94.8,97.9h-0.7c-0.4,0.3-0.8,0.6-1.4,0.9v0.6c0.3-0.1,0.6-0.2,0.8-0.3c0.2-0.1,0.4-0.2,0.6-0.4v4.3h-1.4v0.6
	h3.4v-0.6h-1.3L94.8,97.9L94.8,97.9z"/>
<path class="st1" d="M100.9,102.9h-1.3v-5h-0.7c-0.4,0.3-0.8,0.6-1.4,0.9v0.6c0.3-0.1,0.6-0.2,0.8-0.3c0.2-0.1,0.4-0.2,0.6-0.4v4.3
	h-1.4v0.6h3.4L100.9,102.9L100.9,102.9z"/>
<path class="st1" d="M105.7,102.9h-1.3v-5h-0.7c-0.4,0.3-0.8,0.6-1.4,0.9v0.6c0.3-0.1,0.6-0.2,0.8-0.3c0.2-0.1,0.4-0.2,0.6-0.4v4.3
	h-1.4v0.6h3.4L105.7,102.9L105.7,102.9z"/>
<path class="st1" d="M109.1,97.9h-0.7c-0.4,0.3-0.8,0.6-1.4,0.9v0.6c0.3-0.1,0.6-0.2,0.8-0.3c0.2-0.1,0.4-0.2,0.6-0.4v4.3h-1.4v0.6
	h3.4v-0.6h-1.3L109.1,97.9L109.1,97.9z"/>
<path class="st1" d="M113.4,97.7c-0.6,0-1.1,0.3-1.4,0.8c-0.3,0.5-0.5,1.3-0.5,2.2s0.2,1.6,0.5,2.2c0.3,0.5,0.8,0.8,1.4,0.8
	s1.1-0.3,1.4-0.8c0.3-0.5,0.5-1.3,0.5-2.2s-0.2-1.6-0.5-2.2S114,97.7,113.4,97.7z M112.2,101.2c0-0.2,0-0.3,0-0.5
	c0-0.7,0.1-1.2,0.3-1.7s0.5-0.7,0.9-0.7c0.2,0,0.3,0,0.4,0.1s0.3,0.2,0.4,0.4l-1.9,3C112.2,101.6,112.2,101.3,112.2,101.2z
	 M114.3,102.3c-0.2,0.5-0.5,0.8-1,0.8c-0.2,0-0.3,0-0.4-0.1c-0.1-0.1-0.2-0.2-0.4-0.4l1.9-3.1c0.1,0.4,0.2,0.7,0.2,1.1
	C114.6,101.3,114.5,101.8,114.3,102.3L114.3,102.3z"/>
<path class="st1" d="M118.2,97.7c-0.6,0-1.1,0.3-1.4,0.8c-0.3,0.5-0.5,1.3-0.5,2.2s0.2,1.6,0.5,2.2c0.3,0.5,0.8,0.8,1.4,0.8
	s1.1-0.3,1.4-0.8s0.5-1.3,0.5-2.2s-0.2-1.6-0.5-2.2S118.8,97.7,118.2,97.7z M116.9,101.2c0-0.2,0-0.3,0-0.5c0-0.7,0.1-1.2,0.3-1.7
	c0.2-0.4,0.5-0.7,0.9-0.7c0.1,0,0.3,0,0.4,0.1s0.3,0.2,0.4,0.4l-1.9,3C117,101.6,117,101.3,116.9,101.2z M119.1,102.3
	c-0.2,0.5-0.5,0.8-1,0.8c-0.2,0-0.3,0-0.4-0.1c-0.1-0.1-0.2-0.2-0.4-0.4l1.9-3.1c0.1,0.4,0.1,0.7,0.1,1.1
	C119.4,101.3,119.3,101.8,119.1,102.3L119.1,102.3z"/>
<path class="st1" d="M123.4,97.9h-0.7c-0.4,0.3-0.8,0.6-1.4,0.9v0.6c0.3-0.1,0.6-0.2,0.8-0.3c0.2-0.1,0.4-0.2,0.6-0.4v4.3h-1.4v0.6
	h3.4v-0.6h-1.4L123.4,97.9L123.4,97.9z"/>
<path class="st1" d="M89.5,106.6c-0.6,0-1.1,0.3-1.4,0.8c-0.3,0.5-0.5,1.3-0.5,2.2s0.2,1.6,0.5,2.2c0.3,0.5,0.8,0.8,1.4,0.8
	s1.1-0.3,1.4-0.8c0.3-0.5,0.5-1.3,0.5-2.2s-0.2-1.6-0.5-2.2C90.6,106.8,90.1,106.6,89.5,106.6z M88.3,110c0-0.2,0-0.4,0-0.5
	c0-0.7,0.1-1.2,0.3-1.7s0.5-0.7,0.9-0.7c0.2,0,0.3,0,0.4,0.1s0.3,0.2,0.4,0.4l-1.9,3C88.3,110.4,88.3,110.2,88.3,110z M90.4,111.2
	c-0.2,0.5-0.5,0.8-1,0.8c-0.2,0-0.3,0-0.4-0.1c-0.1-0.1-0.2-0.2-0.4-0.4l1.9-3.1c0.1,0.4,0.2,0.7,0.2,1.1
	C90.7,110.1,90.6,110.7,90.4,111.2L90.4,111.2z"/>
<path class="st1" d="M94.8,106.8h-0.7c-0.4,0.4-0.8,0.6-1.4,0.9v0.6c0.3-0.1,0.6-0.2,0.8-0.4c0.2-0.1,0.4-0.2,0.6-0.4v4.3h-1.4v0.6
	h3.4v-0.6h-1.3L94.8,106.8L94.8,106.8z"/>
<path class="st1" d="M99,106.6c-0.6,0-1.1,0.3-1.4,0.8c-0.3,0.5-0.5,1.3-0.5,2.2s0.2,1.6,0.5,2.2c0.3,0.5,0.8,0.8,1.4,0.8
	s1.1-0.3,1.4-0.8c0.3-0.5,0.5-1.3,0.5-2.2s-0.2-1.6-0.5-2.2C100.2,106.8,99.7,106.6,99,106.6z M97.8,110c0-0.2,0-0.4,0-0.5
	c0-0.7,0.1-1.2,0.3-1.7s0.5-0.7,0.9-0.7c0.2,0,0.3,0,0.4,0.1s0.3,0.2,0.4,0.4l-1.9,3C97.9,110.4,97.8,110.2,97.8,110z M100,111.2
	c-0.2,0.5-0.5,0.8-1,0.8c-0.2,0-0.3,0-0.4-0.1c-0.1-0.1-0.2-0.2-0.4-0.4l1.9-3.1c0.1,0.4,0.2,0.7,0.2,1.1
	C100.3,110.1,100.2,110.7,100,111.2L100,111.2z"/>
<path class="st1" d="M103.8,106.6c-0.6,0-1.1,0.3-1.4,0.8c-0.3,0.5-0.5,1.3-0.5,2.2s0.2,1.6,0.5,2.2c0.3,0.5,0.8,0.8,1.4,0.8
	s1.1-0.3,1.4-0.8c0.3-0.5,0.5-1.3,0.5-2.2s-0.2-1.6-0.5-2.2C104.9,106.8,104.4,106.6,103.8,106.6z M102.6,110c0-0.2,0-0.4,0-0.5
	c0-0.7,0.1-1.2,0.3-1.7s0.5-0.7,0.9-0.7c0.2,0,0.3,0,0.4,0.1s0.3,0.2,0.4,0.4l-1.9,3C102.7,110.4,102.6,110.2,102.6,110z
	 M104.8,111.2c-0.2,0.5-0.5,0.8-1,0.8c-0.2,0-0.3,0-0.4-0.1c-0.1-0.1-0.2-0.2-0.4-0.4l1.9-3.1c0.1,0.4,0.2,0.7,0.2,1.1
	C105,110.1,104.9,110.7,104.8,111.2L104.8,111.2z"/>
<path class="st1" d="M109.1,106.8h-0.7c-0.4,0.4-0.8,0.6-1.4,0.9v0.6c0.3-0.1,0.6-0.2,0.8-0.4c0.2-0.1,0.4-0.2,0.6-0.4v4.3h-1.4v0.6
	h3.4v-0.6h-1.3L109.1,106.8L109.1,106.8z"/>
<path class="st1" d="M113.4,106.6c-0.6,0-1.1,0.3-1.4,0.8c-0.3,0.5-0.5,1.3-0.5,2.2s0.2,1.6,0.5,2.2c0.3,0.5,0.8,0.8,1.4,0.8
	s1.1-0.3,1.4-0.8c0.3-0.5,0.5-1.3,0.5-2.2s-0.2-1.6-0.5-2.2C114.5,106.8,114,106.6,113.4,106.6z M112.2,110c0-0.2,0-0.4,0-0.5
	c0-0.7,0.1-1.2,0.3-1.7s0.5-0.7,0.9-0.7c0.2,0,0.3,0,0.4,0.1s0.3,0.2,0.4,0.4l-1.9,3C112.2,110.4,112.2,110.2,112.2,110z
	 M114.3,111.2c-0.2,0.5-0.5,0.8-1,0.8c-0.2,0-0.3,0-0.4-0.1c-0.1-0.1-0.2-0.2-0.4-0.4l1.9-3.1c0.1,0.4,0.2,0.7,0.2,1.1
	C114.6,110.1,114.5,110.7,114.3,111.2L114.3,111.2z"/>
<path class="st1" d="M118.7,106.8H118c-0.4,0.4-0.8,0.6-1.4,0.9v0.6c0.3-0.1,0.6-0.2,0.8-0.4c0.2-0.1,0.4-0.2,0.6-0.4v4.3h-1.4v0.6
	h3.4v-0.6h-1.4L118.7,106.8L118.7,106.8z"/>
<path class="st1" d="M123.4,106.8h-0.7c-0.4,0.4-0.8,0.6-1.4,0.9v0.6c0.3-0.1,0.6-0.2,0.8-0.4c0.2-0.1,0.4-0.2,0.6-0.4v4.3h-1.4v0.6
	h3.4v-0.6h-1.4L123.4,106.8L123.4,106.8z"/>
<path class="st1" d="M129,106.6c-0.6,0-1.1,0.3-1.5,0.8c-0.3,0.5-0.5,1.3-0.5,2.2s0.2,1.6,0.5,2.2c0.3,0.5,0.8,0.8,1.5,0.8
	s1.1-0.3,1.4-0.8s0.5-1.3,0.5-2.2s-0.2-1.6-0.5-2.2C130.1,106.8,129.6,106.6,129,106.6z M127.8,110c0-0.2,0-0.4,0-0.5
	c0-0.7,0.1-1.2,0.3-1.7c0.2-0.4,0.5-0.7,0.9-0.7c0.1,0,0.3,0,0.4,0.1s0.3,0.2,0.4,0.4l-1.9,3C127.8,110.4,127.8,110.2,127.8,110z
	 M129.9,111.2c-0.2,0.5-0.5,0.8-1,0.8c-0.2,0-0.3,0-0.4-0.1c-0.1-0.1-0.2-0.2-0.4-0.4l1.9-3.1c0.1,0.4,0.1,0.7,0.1,1.1
	C130.2,110.1,130.1,110.7,129.9,111.2L129.9,111.2z"/>
<path class="st1" d="M134.3,106.8h-0.7c-0.4,0.4-0.8,0.6-1.4,0.9v0.6c0.3-0.1,0.6-0.2,0.8-0.4c0.2-0.1,0.4-0.2,0.6-0.4v4.3h-1.4v0.6
	h3.4v-0.6h-1.4L134.3,106.8L134.3,106.8z"/>
<path class="st1" d="M138.6,106.6c-0.6,0-1.1,0.3-1.4,0.8c-0.3,0.5-0.5,1.3-0.5,2.2s0.2,1.6,0.5,2.2c0.3,0.5,0.8,0.8,1.4,0.8
	s1.1-0.3,1.4-0.8s0.5-1.3,0.5-2.2s-0.2-1.6-0.5-2.2C139.7,106.8,139.2,106.6,138.6,106.6z M137.3,110c0-0.2,0-0.4,0-0.5
	c0-0.7,0.1-1.2,0.3-1.7c0.2-0.4,0.5-0.7,0.9-0.7c0.1,0,0.3,0,0.4,0.1s0.3,0.2,0.4,0.4l-1.9,3C137.4,110.4,137.3,110.2,137.3,110z
	 M139.5,111.2c-0.2,0.5-0.5,0.8-1,0.8c-0.2,0-0.3,0-0.4-0.1c-0.1-0.1-0.2-0.2-0.4-0.4l1.9-3.1c0.1,0.4,0.1,0.7,0.1,1.1
	C139.8,110.1,139.7,110.7,139.5,111.2L139.5,111.2z"/>
<path class="st1" d="M143.3,106.6c-0.6,0-1.1,0.3-1.4,0.8c-0.3,0.5-0.5,1.3-0.5,2.2s0.2,1.6,0.5,2.2c0.3,0.5,0.8,0.8,1.4,0.8
	s1.1-0.3,1.4-0.8s0.5-1.3,0.5-2.2s-0.2-1.6-0.5-2.2C144.5,106.8,144,106.6,143.3,106.6z M142.1,110c0-0.2,0-0.4,0-0.5
	c0-0.7,0.1-1.2,0.3-1.7c0.2-0.4,0.5-0.7,0.9-0.7c0.1,0,0.3,0,0.4,0.1s0.3,0.2,0.4,0.4l-1.9,3C142.2,110.4,142.1,110.2,142.1,110z
	 M144.3,111.2c-0.2,0.5-0.5,0.8-1,0.8c-0.2,0-0.3,0-0.4-0.1c-0.1-0.1-0.2-0.2-0.4-0.4l1.9-3.1c0.1,0.4,0.1,0.7,0.1,1.1
	C144.6,110.1,144.5,110.7,144.3,111.2L144.3,111.2z"/>
<path class="st1" d="M148.1,106.6c-0.6,0-1.1,0.3-1.4,0.8c-0.3,0.5-0.5,1.3-0.5,2.2s0.2,1.6,0.5,2.2c0.3,0.5,0.8,0.8,1.4,0.8
	s1.1-0.3,1.4-0.8s0.5-1.3,0.5-2.2s-0.2-1.6-0.5-2.2C149.2,106.8,148.7,106.6,148.1,106.6z M146.9,110c0-0.2,0-0.4,0-0.5
	c0-0.7,0.1-1.2,0.3-1.7c0.2-0.4,0.5-0.7,0.9-0.7c0.1,0,0.3,0,0.4,0.1s0.3,0.2,0.4,0.4l-1.9,3C147,110.4,146.9,110.2,146.9,110z
	 M149.1,111.2c-0.2,0.5-0.5,0.8-1,0.8c-0.2,0-0.3,0-0.4-0.1c-0.1-0.1-0.2-0.2-0.4-0.4l1.9-3.1c0.1,0.4,0.1,0.7,0.1,1.1
	C149.4,110.1,149.3,110.7,149.1,111.2L149.1,111.2z"/>
<path class="st1" d="M153.4,106.8h-0.7c-0.4,0.4-0.8,0.6-1.4,0.9v0.6c0.3-0.1,0.6-0.2,0.8-0.4c0.2-0.1,0.4-0.2,0.6-0.4v4.3h-1.4v0.6
	h3.4v-0.6h-1.4L153.4,106.8L153.4,106.8z"/>
<path class="st2" d="M30.1,58.2c-1,1-2.1,1.8-2.8,3c-0.2,0.3-0.4,0.7-0.6,1.1c-0.3,0.7-0.6,1.3-0.8,2.1c0.2,0.1,0.3,0.2,0.6,0.3
	c0,0,0,0,0,0c0.3,0.1,0.2,0,0.5,0c0.2,0,0.3-0.2,0.5-0.2c0.3-0.1,0.7-0.2,0.9-0.5c0.1-0.1,0.1-0.3,0.1-0.4c0-0.1,0-0.1,0-0.1
	c0.1-0.2,0.1-0.2,0.2-0.3c0.2-0.2,0.2-0.1,0.3-0.2c0.1-0.1,0.2-0.1,0.3-0.3c0-0.1,0.1-0.2,0.1-0.3c0.1-0.4,0-0.8,0.1-1.3
	c0,0,0.1,0,0.1,0c0.4,0.1,0.7-0.1,1.1-0.3c0.5-0.4,0.6-0.6,0.5-1.1c0-0.6,0-0.8-0.5-1.1C30.6,58.4,30.3,58.3,30.1,58.2L30.1,58.2z"
	/>
<path class="st2" d="M35.2,54.1C35.2,54.1,35.2,54.2,35.2,54.1C35.2,54.2,35.2,54.2,35.2,54.1C35.2,54.2,35.2,54.2,35.2,54.1
	L35.2,54.1z"/>
<path class="st2" d="M34.4,54.6C34.4,54.6,34.4,54.6,34.4,54.6c0-0.3-0.1-0.6-0.1-0.9c-0.2,0-0.3-0.2-0.3-0.5
	c-0.1,0.1-0.3,0.1-0.4,0.1c0,0,0.1,0.1,0.1,0.1c-0.3,0.2-0.3,0.4-0.3,0.5c0,0-0.1,0-0.1,0c-0.2-0.1-0.3-0.4-0.5-0.4c0,0,0,0,0,0
	c-0.1,0-0.1,0-0.2,0c-0.3,0-0.5,0.1-0.8,0.2c0,0,0,0,0,0c0,0,0,0,0-0.1c0,0,0.2-0.3,0.3-0.6c0,0,0,0,0,0c0.1-0.1,0.2-0.1,0.3-0.1
	c0.1,0,0.2,0.1,0.3,0.1c0,0,0,0,0,0c0,0,0,0,0,0c0,0,0.1-0.1,0.1-0.1c0-0.1,0-0.2,0-0.2c0,0,0-0.1,0-0.1c0-0.3,0.1-0.5,0.1-0.8
	c0.1,0,0.1-0.1,0.2-0.2c-0.1,0.4-0.1,0.9-0.2,1.4c0.1,0,0.1,0.1,0.2,0.1c0-0.1,0-0.3,0.1-0.5c0-0.1,0-0.2,0-0.2
	c0.1-0.1,0.2-0.1,0.3-0.1c0,0,0.1,0,0.1-0.1c0.1,0,0.2,0,0.3-0.1c0,0,0,0,0,0c-0.1-0.2-0.1-0.5-0.2-0.7c-0.1,0-0.2-0.1-0.2-0.1
	c0-0.1,0-0.2-0.1-0.2c0,0,0,0,0-0.1c0-0.1,0-0.1,0-0.2c-0.1,0-0.1,0-0.2-0.1c0,0-0.1,0-0.1,0c-0.1,0-0.2,0-0.2-0.1
	c-0.1,0-0.1-0.1-0.2-0.1c-0.1,0-0.1,0-0.2-0.1c0,0-0.1-0.1-0.1-0.1c-0.1-0.1-0.2-0.1-0.3-0.2c0,0,0,0,0,0c-0.1,0-0.1,0-0.2,0
	c-0.2,0-0.4-0.2-0.6-0.2c0,0-0.1,0-0.1,0c0,0-0.1,0-0.1,0.1c-0.1,0.1-0.3,0-0.5,0c-0.2,0-0.3,0.1-0.5,0.2C30,50,29.8,50.1,29.6,50
	c-0.5-0.1-1.2-0.2-1.2-0.6s0.6-0.7,0.8-0.8c0.2-0.1,0.4-0.2,0.5-0.3c0.1-0.3-0.2-0.5-0.4-0.7c-0.1-0.1,0.1-0.3,0.2-0.3
	c0.1-0.1,0.2-0.1,0.2-0.2c0-0.1,0-0.1,0-0.2c0-0.1-0.1-0.2-0.1-0.2c0-0.1,0.1-0.2,0.1-0.2c0.1-0.1,0.2-0.2,0.3-0.2
	c0,0,0.1,0,0.2-0.1c0.2-0.2-0.2-0.6-0.3-0.8c-0.1-0.2-0.1-0.5-0.2-0.7c0-0.2,0.2-0.8,0.2-1.2c0-0.1,0-0.3,0-0.4
	c-0.1-0.2-0.3-0.2-0.4-0.4c-0.1-0.2,0-0.5-0.1-0.7c-0.3-0.4-0.7-0.2-1-0.6c0,0,0,0,0,0c-0.2-0.3-0.1-0.5-0.2-0.8
	c-0.1-0.3-0.3-0.3-0.5-0.6c-0.2-0.3-0.2-0.5-0.6-0.6c-0.3-0.1-0.9-0.1-1.4,0c-0.2,0-0.3,0-0.4,0.1c0,0,0,0,0,0c-0.1,0-0.1,0-0.2,0
	c0,0.1,0,0.2,0,0.4c-0.1,0-0.1,0.1-0.2,0.1c0.1,0,0.2,0.1,0.2,0.1c0,0.1,0,0.1,0,0.1c0.1,0.3,0.2,0.6,0.3,0.9c0,0.1,0.1,0.2,0.1,0.3
	c0.1,0.4,0.3,0.8,0.4,1.2c0.2,0.7,0.2,1.4,0.1,2.1c-0.1,0-0.1,0.1-0.2,0.1c-0.1,0-0.1,0.1-0.2,0.1c0,0-0.1,0-0.1,0.1
	c0-0.3,0.1-0.7,0.1-1c0,0,0-0.1,0-0.1c0-0.4,0-0.8-0.1-1.2c-0.2-0.9-0.6-1.8-0.8-2.7c0,0,0.1,0,0.1-0.1c0,0,0,0,0,0
	c-0.1,0-0.1-0.1-0.2-0.1c0-0.1,0-0.2,0-0.2c-0.1,0.1-0.2,0.1-0.3,0.2c0,0,0,0-0.1,0c-0.1,0-0.1,0.1-0.2,0.1c0,0-0.1,0-0.2,0
	c-0.3,0-0.6-0.1-0.9-0.2c-0.1-0.1-0.2-0.1-0.4-0.1c0,0,0,0-0.1,0c0,0,0,0,0,0c0,0,0,0-0.1,0c-0.2-0.1-0.4-0.2-0.6-0.2c0,0,0,0-0.1,0
	c0,0,0,0-0.1,0c-0.1,0-0.2-0.1-0.3-0.1c0,0,0,0-0.1,0c0,0-0.1,0-0.2,0c-0.1,0-0.2,0.2-0.3,0c-0.1-0.1-0.1-0.2,0-0.4
	c0.1-0.1,0.1-0.2,0.2-0.3s0.2-0.2,0.3-0.3c0.1-0.2-0.2-0.2-0.2-0.3c-0.1-0.1-0.1-0.2,0-0.3c0,0,0,0,0.1,0c0.1,0,0.2-0.1,0.2-0.1
	c0,0-0.1,0-0.2-0.1c-0.2-0.2-0.5-0.1-0.2-0.6c0.2-0.3,0.5-0.5,0.9-0.6c0.4-0.1,0.9-0.2,1.3-0.1c0.2,0,0.4,0,0.6,0
	c0.2,0,0.5,0,0.7-0.1c0.3-0.1,0.4-0.3,0.5-0.5c0-0.2,0-0.4,0-0.5c-0.2-0.3-0.8-0.4-1.3-0.5c-0.1,0-0.3,0-0.4,0
	c-0.7-0.1-2.5,0.2-2-0.8c0.4-0.7,1.5-0.2,1.8-0.8c0-0.1,0.1-0.2,0.1-0.4c-0.1-0.7-1.2-1.4-1.8-1.8c-0.4-0.3-0.5-0.5-0.6-0.6
	c-0.1-0.3,0.1-0.5,0.5-0.6c0.2,0,0.8,0,1-0.2c0.1-0.1,0.1-0.2,0.1-0.3c0-0.1,0.1-0.2,0.2-0.3c0.2-0.2,0.5-0.3,0.7-0.5
	c0.1-0.1,0.1-0.1,0.1-0.2c0-0.1,0.1-0.2,0.1-0.2c0-0.2,0.1-0.3,0.1-0.5c0-0.1,0-0.2,0-0.3c0-0.4,0-0.7,0.1-1c0-0.2,0-0.4,0-0.6
	c-0.1,0-0.2,0-0.2,0c-0.4,0.1-1,0.3-1.6,0.3c-0.3,0-0.6,0-0.9,0c-0.6-0.1-0.7-0.2-1.4,0.1c-0.1,0.1-0.3,0.1-0.4,0.2
	c-0.2,0.2-0.6,0.4-0.8,0.6c-0.2,0.2-0.2,0.4-0.3,0.7c-0.1,0.4-0.3,0.7-0.6,1c-0.3,0.3-0.6,0.4-1.1,0.7c-0.3,0.2-0.7,0.3-1.1,0.4
	c-0.5,0.1-0.9,0.1-1.3,0.2c-0.2,0-0.5,0.1-0.6,0.3c0.1,0.1,0.3,0.3,0.4,0.4c0.1,0.2,0.3,0.3,0.3,0.5c0.1,0.2,0,0.5-0.3,0.8
	c-0.3,0.4-0.7,0.6-0.9,0.7c-0.1,0.1-0.2,0.1-0.6,0.3c0.1,0.2,0.1,0.4,0.1,0.6c0,0.6,0,0.9-0.1,1.2c0,0.1-0.1,0.2-0.2,0.3
	c0,0.2,0,0.4-0.2,0.6c-0.1,0.2-0.2,0.5-0.3,0.8c0,0,0,0,0,0.1c0,0.1,0,0.2-0.1,0.3c0,0.2,0,0.3,0,0.5c0,0.1,0,0.2,0,0.2
	c0,0.1,0,0.1-0.1,0.2c-0.1,0.2-0.5,0.2-0.7,0.3c-0.1,0-0.2,0.1-0.2,0.1c-0.1,0-0.1,0.1-0.2,0.1c-0.3,0.1-0.7,0.1-0.9,0.2
	c-0.3,0.2-0.3,0.3,0,0.7c0.1,0.1,0.3,0.3,0.6,0.5c0.6,0.4,1.6,1,1.5,1.7c0,0.1,0,0.2-0.1,0.3c-0.3,0.4-1.3,0.1-1.6,0.7
	c-0.4,0.8,1.1,0.7,1.8,0.7c0.1,0,0.2,0,0.3,0c0.5,0.1,1.4,0.3,1.4,0.8c0,0.2-0.1,0.4-0.4,0.6c-0.3,0.2-0.7,0.2-1.1,0.3
	c-0.6,0.1-1.5,0.1-1.9,0.8c-0.2,0.3-0.1,0.3,0,0.6c0,0.1,0,0.1,0.1,0.1c-0.1,0.1-0.2,0.2-0.1,0.4c0.1,0.1,0.2,0.2,0.1,0.3
	c0,0.1,0,0.1,0,0.1c0,0,0,0.1-0.1,0.1c0,0.1,0,0.2-0.1,0.3c0,0.1,0,0.2,0,0.3c0.1,0.1,0.1,0.1,0.2,0.2c0.1,0.1,0.3,0.2,0.4,0.2
	c0,0,0,0,0,0c0.2,0.1,0.4,0.2,0.6,0.3c0.2,0.1,0.4,0.2,0.6,0.2c0.1,0.1,0.3,0.1,0.4,0.2c0.2,0,0.4-0.1,0.6-0.1l0,0c0,0,0,0,0.1,0
	c0.3,0,0.6,0.1,1,0.1c0.2,0,0.5,0.1,0.6,0.2c0.1,0,0.1,0.1,0.1,0.1c0.1,0.1,0.2,0.2,0.3,0.4c0,0,0,0,0,0c0.1,0.1,0.1,0.2,0.2,0.2
	c0,0,0,0.1,0.1,0.1c0,0.1,0.1,0.1,0.1,0.2c0.1,0.2,0,0.4,0.1,0.7c0.1,0.1,0.1,0.2,0.2,0.2c0.1,0.1,0.2,0.2,0.3,0.5c0,0,0,0.1,0,0.1
	c0,0.2,0,0.3,0,0.5c0,0,0,0,0,0c0.1,0.1,0.2,0.2,0.2,0.4c0,0.1,0,0.1,0,0.2c0,0,0,0.1,0,0.1c0,0.3,0,0.7,0,0.9
	c0.1,0.2,0.2,0.3,0.3,0.5c0,0,0,0,0,0.1c0.1,0.2,0.3,0.4,0.4,0.5c0,0,0,0.1,0,0.1c0,0,0,0.1,0,0.2c0,0.1,0,0.1,0.1,0.2
	c0,0.1,0.1,0.1,0.1,0.2c0,0.1,0,0.1,0,0.1c0,0.1,0,0.1,0,0.2c0,0-0.1,0.1,0,0.2c0,0.1,0.1,0.1,0.2,0.2c0.1,0.1,0.2,0.2,0.2,0.4
	c0,0.2-0.1,0.2-0.2,0.4c-0.1,0.2-0.4,0.4-0.6,0.7c-0.2,0.2,0.4,0.4,0.9,0.6c0.2,0.1,0.4,0.1,0.5,0.1c0.1,0,0.2,0,0.3,0
	c0.1,0,0.1,0,0.2,0c0.1,0,0.3,0.1,0.4,0.1c0,0,0.1,0,0.1,0c0,0,0.1,0,0.1,0c0.2,0.1,0.3,0.2,0.4,0.3c0.1,0,0.1,0.1,0.2,0.1
	c0.1,0.1,0.1,0.1,0.2,0.2c0,0,0.1,0.1,0.1,0.1c0,0,0.1,0.1,0.1,0.1c0,0,0.1,0.1,0.1,0.1c0.1,0.1,0.2,0.1,0.4,0.2c0,0,0,0,0.1,0
	c0,0.1,0,0.2,0.1,0.2c0.2,0.1,0.4,0.2,0.6,0.3c0,0,0,0,0,0c0,0,0,0,0.1,0c0,0,0,0,0.1,0c0,0.1,0,0.2,0,0.2c0,0,0,0,0,0.1
	c0,0,0,0,0,0.1c0,0.1,0,0.1,0.1,0.1c0,0.1,0,0.1,0,0.1l0,0c-0.1,0.1-0.2,0-0.2,0.1c0,0,0.1,0.1,0.1,0.2c0,0.1,0,0.1-0.1,0.2
	c-0.1,0.3,0.1,0.6,0.4,0.6c0.1,0,0.2,0,0.3,0c0,0.2,0,0.4,0.1,0.4c0,0.1,0.1,0.1,0.1,0.1c0.1,0,0.2,0.1,0.3,0.1
	c0,0.1,0.1,0.2,0.2,0.3c0,0,0,0,0,0c0,0,0.1,0.1,0.2,0.2c0,0.1,0.1,0.1,0.1,0.1c0,0.1,0,0.1,0,0.1c0,0,0.1,0.1,0.1,0.1
	c-0.1,0.1-0.1,0.2-0.1,0.3c0,0.2,0,0.4,0.1,0.5c0,0.1,0,0.2,0.1,0.3c0,0.1,0.1,0.1,0.2,0.1c0,0,0,0,0,0c0.1,0.1,0.2,0.1,0.4,0.1
	c0,0,0.1,0,0.1,0c0-0.1,0-0.2,0-0.2c0-0.6,0-1.1,0-1.7c0-0.1,0-0.2,0-0.2c0-0.6,0-1.1,0-1.7c0,0,0-0.1,0-0.1
	c-0.1-0.8-0.1-1.7-0.1-2.5c0.1,0.2,0.2,0.4,0.5,0.5c0.1,0,0.2,0.1,0.4,0.1c0,0.4,0,0.9,0.1,1.4c0,0.2,0,0.4,0,0.6
	c0,0.4,0.1,0.9,0.1,1.3c0,1.2,0,2.3,0,3.5c0.1,0,0.1,0,0.2,0c0.2-0.6,0.4-1.2,0.7-1.8c0.2-0.5,0.5-0.9,0.7-1.3c0,0,0-0.1,0-0.1
	c0.7-1.1,1.8-2,2.7-2.8c0,0,0,0-0.1,0c-0.7-0.1-1.5-0.8-2.1-0.8c0.1-0.6,0.1-0.6,0.6-0.7c0.4-0.1,0.8,0.2,0.9-0.3
	c0.2,0.1,0.3,0.1,0.6,0.2c0,0.4,0.4,0.8,0.9,0.9c0.1-0.1,0.3-0.3,0.4-0.4c0.1,0.1,0.3,0,0.4-0.1c0,0,0.1,0,0.1,0c0,0,0,0,0,0
	c0,0,0,0.1-0.1,0.1c-0.1,0.2-0.3,0.3-0.4,0.5c0.3,0,0.5-0.2,0.7-0.4c0,0,0,0,0,0c0.1,0.1,0.1,0.2,0.2,0.3c0.2,0.1,0.4,0.1,0.6,0.1
	c0,0,0,0,0,0c0.8,0,1.3-0.5,1.5-1.2c0.4-1.1-0.5-1-1.3-1.6c0,0-0.1-0.1-0.1-0.1c-0.1,0.3-0.2,0.6-0.3,0.9c-0.1,0-0.2-0.1-0.3-0.1
	c0.2-0.3,0.3-0.6,0.4-1c0,0,0,0,0,0c0.1,0,0.2,0,0.3-0.1c0.1,0,0.2-0.1,0.3-0.1c0.2,0,0.4,0.2,0.6,0.3c0.2,0.2,0.4,0.4,0.7,0.5
	c0.1,0,0.1,0,0.2-0.1C34.4,54.7,34.4,54.7,34.4,54.6C34.4,54.6,34.4,54.6,34.4,54.6C34.4,54.5,34.4,54.5,34.4,54.6L34.4,54.6z
	 M20.8,54.9c0.2,0.1,0.3,0.1,0.5,0.3c0.1,0.1,0.1,0.1,0.1,0.2c0,0.1,0.1,0.1,0.1,0.2c0,0,0,0,0,0.1l-0.1,0l-0.5,0.2
	C20.8,55.5,20.8,55.2,20.8,54.9L20.8,54.9z M25.3,51.2c-0.1-0.1-0.2-0.2-0.2-0.3c0,0,0,0,0.1,0c0.1,0,0.1,0,0.2-0.1
	C25.3,50.9,25.3,51,25.3,51.2z M21.9,50.8C21.9,50.8,21.9,50.7,21.9,50.8C21.9,50.7,21.9,50.7,21.9,50.8
	C21.9,50.8,21.9,50.8,21.9,50.8L21.9,50.8z M20.9,53.4c0-0.1,0-0.2,0-0.3c0-0.1,0-0.1,0-0.2c0,0,0,0,0,0c0,0,0,0.1,0.1,0.1
	C21,53.2,21.1,53.3,20.9,53.4C20.9,53.4,20.9,53.4,20.9,53.4c0.1,0.1,0,0.1,0,0.1C20.8,53.4,20.8,53.4,20.9,53.4L20.9,53.4z
	 M25.6,48c0,0.3-0.1,0.7-0.1,1l0,0c-0.2,0.1-0.4,0.2-0.6,0.2c0,0,0,0-0.1,0c0-0.1,0-0.2,0-0.3c0-0.1,0-0.2,0-0.3
	c0.1-0.1,0.2-0.1,0.3-0.2C25.4,48.4,25.5,48.2,25.6,48L25.6,48z M34,54.1L34,54.1c0.1,0,0.1,0.1,0.2,0.2c0,0,0.1,0.1,0,0.1h0
	c-0.2,0.1-0.5,0-0.5-0.2c0-0.1,0-0.1,0.1-0.1C33.9,54.1,33.9,54.1,34,54.1z"/>
<path class="st3" d="M43.8,36.1c0-0.2,0-0.3,0-0.5c-0.1-0.3-0.4-0.2-0.6-0.4c0.1,0.5,0.2,1,0.4,1.5C43.6,36.6,43.7,36.3,43.8,36.1z"
	/>
<path class="st3" d="M46.4,45.7c-0.1-0.4-0.2-0.8-0.3-1.2c0,0.3-0.1,0.6-0.1,0.9C46.1,45.5,46.3,45.6,46.4,45.7z"/>
<path class="st3" d="M46.9,48.4c0-0.2-0.1-0.4-0.1-0.6c0-0.1,0-0.2-0.1-0.3c-0.1,0-0.3,0.1-0.4,0.1c-0.1,0-0.3-0.1-0.3-0.2
	c0-0.1-0.1-0.2-0.1-0.3c-0.1,0.1-0.2,0.1-0.2,0.1c0,0,0,0-0.1,0c-0.1,0-0.2,0.1-0.3,0.1c0.1,0.1,0.1,0.1,0.2,0.1l0,0
	c-0.2,0.4-0.3,0.9-0.6,1.3c-0.1-0.1-0.2-0.1-0.3-0.2c0.2-0.4,0.4-0.8,0.6-1.3c-0.2,0-0.4-0.1-0.5-0.3c0-0.1,0-0.2,0.1-0.4
	c0,0,0-0.1,0-0.1c0-0.1,0.1-0.1,0.1-0.2c-0.1-0.1-0.2-0.1-0.2-0.2c0.1-0.2,0.4-0.7,0.4-0.7c0.1-0.1,0.3,0,0.6,0.1
	c0.1-0.4,0.2-0.8,0.2-1.2l0-0.2c-0.1,0-0.1,0-0.2-0.1c-0.1,0-0.2-0.1-0.2-0.1c-0.1,0-0.1,0-0.2,0c-0.1,0-0.1-0.1-0.2-0.1
	c0,0,0,0,0,0c-0.1,0-0.2,0-0.2-0.1h0c-0.1,0-0.2,0-0.3,0c0,0,0,0,0,0c0,0,0,0,0,0c-0.2,0-0.5-0.1-0.7-0.2c-0.1,0-0.1,0-0.1,0
	c-0.1,0-0.1,0-0.2,0.1c-0.2,0.1-0.4,0-0.5,0.1c-0.2,0.1-0.3,0.3-0.5,0.4c-0.2,0.2-0.4,0.3-0.6,0.2c-0.5-0.1-1.4-0.1-1.4-0.6
	c0-0.5,0.6-0.8,0.9-1c0.2-0.1,0.7-0.1,0.8-0.3c0.1-0.1,0.1-0.2,0.1-0.2c0-0.3-0.3-0.4-0.5-0.6c-0.1-0.2,0.2-0.4,0.3-0.4
	c0.2-0.1,0.3-0.2,0.5-0.3c0.1-0.1,0.1-0.1,0.1-0.2c0-0.1-0.1-0.2-0.1-0.3c0-0.2,0.2-0.2,0.3-0.3c0.2-0.1,0.3-0.2,0.6-0.3
	c0.1,0,0.3,0,0.4-0.1c0.3-0.2-0.1-0.8-0.2-1.1c-0.1-0.3,0-0.6-0.2-0.9c0-0.1,0.1-0.2,0.1-0.3c-0.5-0.9-0.6-2-0.8-3c0,0,0,0,0,0
	c-0.4-0.1-0.9,0.1-1.3-0.3c-0.4-0.4-0.1-0.7-0.3-1c-0.2-0.4-0.3-0.3-0.6-0.7c-0.3-0.3-0.2-0.6-0.7-0.7c-0.1,0-0.3,0-0.4,0
	c-0.4,0-0.8,0.1-1.2,0.2c-0.1,0-0.2,0-0.2,0.1c0,0,0,0,0,0c-0.1,0-0.1,0-0.2,0c0,0-0.1,0-0.1,0c-0.1,0-0.2,0.1-0.3,0.1
	c-0.1,0-0.2,0.1-0.3,0.1c0,0-0.1,0.1-0.2,0.2c-0.2,0.2-0.4,0.4-0.6,0.4c0,0,0,0,0,0s0,0-0.1,0c-0.1,0-0.3,0-0.5,0
	c-0.3,0-0.5-0.1-0.8-0.2c-0.1,0-0.1,0-0.2-0.1c-0.1,0-0.2-0.1-0.3-0.1c-0.3-0.1-0.7-0.2-1-0.3c0,0,0,0,0,0c0,0,0,0,0,0
	C33.1,32,32.8,32,32.6,32c-0.2,0.1-0.2,0.3-0.4,0.1c-0.2-0.2-0.1-0.3,0-0.4c0.1-0.1,0.2-0.2,0.3-0.3c0.1-0.1,0.3-0.2,0.4-0.3
	c0.2-0.2-0.2-0.2-0.4-0.4c-0.3-0.3,0.2-0.4,0.4-0.4c0,0.1-0.2,0-0.2,0c-0.4-0.2-0.7,0-0.4-0.6c0,0,0,0,0,0s0,0,0,0
	c0.3-0.5,0.9-0.7,1.5-0.7c0.3,0,0.7,0,0.9,0c0.1,0,0.2,0,0.4,0c0,0,0,0,0,0c0.1,0,0.3,0,0.4,0c0,0,0.1,0,0.1,0c0,0,0,0,0.1,0
	c0.1,0,0.1,0,0.2,0s0.1,0,0.2,0c0.3-0.1,0.6-0.2,0.8-0.6c0.5-0.6-0.2-0.9-0.8-1.1c-0.2,0-0.3-0.1-0.5-0.1c-0.1,0-0.3,0-0.4-0.1
	c0,0,0,0,0,0c-0.2,0-0.6,0-1,0c-0.4,0-0.8,0-1.1-0.2c-0.2-0.1-0.3-0.3-0.1-0.6c0.4-0.8,1.7-0.2,2-1c0-0.1,0-0.3,0-0.4
	c0-0.2-0.2-0.4-0.3-0.6c-0.5-0.5-1.3-1-1.8-1.3c-0.4-0.3-0.6-0.6-0.6-0.8c0-0.3,0.4-0.5,1-0.5c0.2,0,1,0,1.2-0.2
	c0.1-0.1,0-0.3,0-0.4c0-0.1,0-0.3,0.1-0.4c0.2-0.3,0.5-0.5,0.7-0.7c0.1-0.1,0.1-0.1,0.2-0.2c0.1-0.1,0.1-0.2,0.2-0.3
	c0.1-0.2,0.1-0.3,0.1-0.5c0-0.1,0-0.2,0-0.3c-0.1-0.4-0.1-0.8-0.2-1.2c0-0.3-0.1-0.5-0.2-0.8c0.2,0,0.4-0.1,0.6-0.1
	c0.5,0,0.9,0,1.2-1c0,0,0-0.1,0-0.2c-0.1,0-0.2-0.1-0.3-0.1c-0.2,0-0.4-0.1-0.6,0c-0.2,0.3-0.8,0.7-1.4,0.8c-0.3,0-0.6,0.1-0.9,0.1
	c-0.6,0-0.9-0.1-1.5,0.1c-0.2,0-0.3,0-0.5,0.1c-0.2,0-0.7,0.2-0.9,0.4c-0.2,0.2-0.2,0.5-0.2,0.7c-0.1,0.5-0.1,0.8-0.6,1
	c-0.4,0.2-0.7,0.2-1.2,0.5c-0.4,0.2-0.8,0.3-1.2,0.4c-0.5,0.1-1,0-1.4,0c-0.2,0-0.6,0.1-0.7,0.3c0.1,0.1,0.3,0.3,0.4,0.5
	c0.1,0.2,0.3,0.4,0.3,0.6c0,0.2-0.2,0.5-0.6,0.7c-0.4,0.3-0.9,0.5-1.2,0.7c0.1,0.2,0.2,0.3,0,0.6c0.1,0.2,0.1,0.4,0,0.7
	c-0.1,0.7-0.3,0.9-0.6,1.1c-0.1,0.1-0.2,0.1-0.4,0.2c0,0,0,0.1,0,0.2c0,0.2,0,0.4,0,0.6c0,0.3-0.1,0.7-0.1,1c0,0.1,0,0.2,0,0.3
	c0,0.2,0,0.3-0.1,0.5c0,0.1,0,0.2-0.1,0.2c0,0.1-0.1,0.1-0.1,0.2c-0.2,0.2-0.5,0.3-0.7,0.5c-0.1,0.1-0.2,0.2-0.2,0.3
	c0,0.1,0,0.2-0.1,0.3c-0.3,0.2-0.8,0.2-1,0.2c-0.4,0.1-0.6,0.3-0.5,0.6c0,0.2,0.2,0.4,0.6,0.6c0.6,0.4,1.8,1.1,1.8,1.8
	c0,0.1,0,0.3-0.1,0.4c-0.3,0.6-1.4,0.1-1.8,0.8c-0.5,0.9,1.3,0.7,2,0.8c0.1,0,0.3,0,0.4,0c0.5,0.1,1,0.2,1.3,0.5
	c0.1,0.1,0.2,0.3,0.1,0.5c0,0,0,0.1-0.1,0.1c-0.1,0.2-0.3,0.4-0.5,0.5c-0.2,0.1-0.4,0.1-0.7,0.1c-0.2,0-0.4,0-0.6,0
	c-0.4,0-0.9,0-1.3,0.1c-0.3,0.1-0.7,0.3-0.9,0.6c-0.3,0.5,0,0.4,0.2,0.6c0,0,0.1,0.1,0.2,0.1c0,0-0.1,0.1-0.2,0.1c0,0,0,0-0.1,0
	c-0.1,0.1-0.1,0.2,0,0.3c0.1,0.1,0.4,0.1,0.2,0.3c-0.1,0.1-0.2,0.2-0.3,0.3s-0.1,0.2-0.2,0.3c-0.1,0.1-0.1,0.2,0,0.4
	c0.2,0.2,0.2,0.1,0.3,0c0,0,0.1,0,0.2,0c0,0,0,0,0.1,0c0.1,0,0.2,0,0.3,0.1c0,0,0,0,0.1,0c0,0,0,0,0.1,0c0.2,0.1,0.4,0.2,0.6,0.2
	c0,0,0,0,0.1,0c0,0,0,0,0,0c0,0,0,0,0.1,0c0.1,0.1,0.2,0.1,0.4,0.1c0.3,0.1,0.6,0.2,0.9,0.2c0,0,0.1,0,0.2,0c0.2,0,0.4-0.1,0.5-0.2
	c0.1,0,0.1-0.1,0.2-0.1c0,0,0.1,0,0.2,0c0.1,0,0.1,0,0.2,0c0,0,0,0,0,0c0.1,0,0.3-0.1,0.4-0.1c0.5-0.1,1.1-0.1,1.4,0
	c0.4,0.1,0.3,0.3,0.6,0.6c0.2,0.2,0.3,0.2,0.5,0.6c0.1,0.2,0,0.5,0.2,0.8c0,0,0,0,0,0c0.3,0.4,0.8,0.2,1,0.6c0.2,0.2,0,0.5,0.1,0.7
	c0.1,0.2,0.3,0.2,0.4,0.4c0,0.1,0,0.2,0,0.4c0,0.4-0.2,0.9-0.2,1.2c0.2,0.2,0.2,0.5,0.2,0.7s0.5,0.7,0.3,0.8c0,0.1-0.1,0.1-0.2,0.1
	c-0.1,0-0.2,0.1-0.3,0.2c0,0.1-0.1,0.1-0.1,0.2c0,0.1,0.1,0.2,0.1,0.2c0,0.1,0,0.1,0,0.2c-0.1,0.1-0.1,0.2-0.2,0.2
	c-0.1,0.1-0.2,0.2-0.2,0.3c0.2,0.2,0.5,0.3,0.4,0.7c-0.1,0.2-0.3,0.2-0.5,0.3c-0.2,0.2-0.7,0.5-0.8,0.8c-0.1,0.3,0.7,0.5,1.2,0.6
	c0.2,0.1,0.4,0,0.6-0.1c0.2-0.1,0.3-0.2,0.5-0.2c0.2,0,0.3,0.1,0.5,0c0.1,0,0.1-0.1,0.1-0.1c0,0,0.1,0,0.1,0
	c0.2,0.1,0.4,0.2,0.6,0.2c0.1,0,0.1,0,0.2,0c0,0,0,0,0,0c0.1,0,0.2,0.1,0.3,0.2c0,0,0.1,0.1,0.1,0.1c0.1,0,0.1,0,0.2,0.1
	c0.1,0,0.1,0.1,0.2,0.1c0.1,0,0.2,0.1,0.2,0.1c0,0,0.1,0,0.1,0c0.1,0,0.1,0,0.2,0.1c0,0,0,0.1,0,0.2c0,0,0,0,0,0.1
	c0,0.1,0,0.2,0.1,0.2c0.1,0,0.2,0.1,0.2,0.1c0.2,0.1,0.4,0.2,0.4,0.3c-0.1,0-0.2,0-0.2,0.1c-0.1,0.1-0.1,0.2-0.1,0.3c0,0,0,0,0,0
	C33.8,52,33.7,52,33.6,52c-0.1,0.1-0.1,0.1-0.1,0.1c-0.1,0.1-0.2,0.1-0.3,0.1c0,0.1,0,0.1,0,0.2C33,52.7,33,52.8,33.1,53
	c0.1,0.2,0.2,0.3,0.5,0.3c0.1,0,0.3,0,0.4-0.1c0,0.4,0.1,0.5,0.3,0.5c0.1,0,0.3,0,0.5,0c0,0.2,0.1,0.3,0.2,0.4
	c0.1,0.1,0.2,0.1,0.3,0.2c0,0,0,0,0,0c0,0,0,0,0,0c0,0.1,0,0.1,0.1,0.1c0,0.1,0,0.1,0,0.2c0.1,0,0.1,0.1,0.2,0.1
	c-0.1,0.1-0.1,0.2-0.1,0.2c0,0.1,0.1,0.2,0.1,0.4c0.1,0.1,0.2,0.2,0.3,0.2c0,0.1,0,0.2,0,0.3c0.1,0.2,0.3,0.3,0.6,0.4
	c0.1,0,0.3,0.2,0.5,0.3c0-1.3,0.1-2.6,0-3.9c-0.1-1.3-0.1-2.7,0-4c0.2-0.1,0.3-0.2,0.5-0.3c0.1-0.1,0.2-0.2,0.3-0.3c0,0,0,0,0.1,0.1
	c-0.1,1.3-0.1,2.5,0.1,3.8c0.2,1.8,0.1,3.7,0.2,5.6c0,0,0.1,0,0.1,0c0,0.1,0,0.2,0,0.3c0.2-0.7,0.5-1.3,0.8-2c0.2-0.5,0.5-1,0.8-1.4
	c0,0,0-0.1,0.1-0.1c0.6-0.9,1.4-1.7,2.2-2.4c0,0,0.1,0.1,0.1,0.1c0.1,0.1,0.2,0.1,0.2,0.2c0,0,0,0,0,0c-0.8,0.7-1.5,1.5-2.1,2.4
	c-0.2,0.4-0.4,0.8-0.6,1.2c-0.3,0.7-0.7,1.5-0.9,2.2c0.2,0,0.3,0.1,0.5,0.1c0.1,0,0.1,0,0.1,0.1c0.2,0.1,0.1,0.2,0.4,0.2
	c0.3,0,0.3-0.2,0.5-0.3c0.3-0.1,0.7-0.2,1-0.5c0.1-0.1,0.2-0.2,0.2-0.4c0-0.1,0-0.1,0-0.2c0.1-0.2,0.1-0.2,0.2-0.3
	c0.2-0.2,0.2-0.1,0.3-0.2c0.2-0.1,0.2-0.1,0.3-0.3c0-0.1,0.1-0.2,0.1-0.3c0.1-0.5,0-0.9,0.1-1.4c0,0,0-0.1,0.1-0.1
	c0.5,0.1,0.8-0.1,1.2-0.3c0.5-0.4,0.6-0.6,0.6-1.2c0-0.2,0-0.4-0.1-0.6c0.1-0.1,0.1-0.3-0.1-0.4c-0.1-0.1-0.3-0.2-0.5-0.3
	c-0.3-0.2-0.2-0.5,0.2-0.6c0.5,0,1.5,0.2,1.5-0.4c0-0.2,0-0.4,0-0.6c0.1,0.1,0.1,0.2,0.2,0.3c0.8,0,1.2-0.4,1.5-1.1
	C47.1,48.9,47,48.7,46.9,48.4L46.9,48.4z M33.7,48.4l-0.5,0.2c0-0.1,0-0.2-0.1-0.3c-0.1-0.4-0.1-0.8-0.1-1.2c0-0.5,0-1,0.1-1.5
	c0-0.4,0.1-0.8,0.2-1.2c0-0.2,0.1-0.3,0.1-0.5c0,0,0.1,0.1,0.1,0.1c0.1,0.1,0.1,0.2,0.3,0.3c0,0,0.1,0,0.1,0c0,0.1,0,0.1,0,0.2
	c-0.1,0.4-0.1,0.9-0.1,1.3c0,0.2,0,0.3,0,0.4c0,0.7-0.1,1.4,0,2h0l-0.1,0.1L33.7,48.4L33.7,48.4L33.7,48.4z M38,37.6
	c0.1,0,0.1,0,0.2,0.1c0.1,0,0.2,0,0.2,0c0,0,0,0,0.1,0c0,0,0,0,0,0c0,0.2,0,0.3-0.1,0.5s0,0.3-0.1,0.5c0-0.1-0.1-0.1-0.2-0.1
	c0,0-0.1-0.1-0.1-0.1c-0.1,0-0.2,0-0.3,0C37.9,38.2,37.9,37.9,38,37.6C38,37.6,38,37.6,38,37.6L38,37.6z M38.1,41.4
	c0,0.3,0,0.6-0.1,0.8c-0.1-0.1-0.1-0.1-0.2-0.1c-0.2,0-0.3-0.1-0.5-0.1c0-0.2,0-0.4,0.1-0.7c0.1-0.5,0.2-1.1,0.2-1.6
	c0.1,0,0.1,0,0.2,0c0.2,0,0.3,0.1,0.4,0.1C38.2,40.4,38.1,40.9,38.1,41.4L38.1,41.4z M34.8,41c0-0.1-0.1-0.1-0.2-0.2
	c-0.2-0.2-0.2-0.4-0.2-0.6c0-0.2,0.1-0.3,0.1-0.4c0.1,0,0.3-0.1,0.5-0.1C34.9,40.1,34.9,40.6,34.8,41L34.8,41z M37.9,43.3
	c0,0.1,0,0.3,0,0.4c-0.1-0.1-0.2-0.2-0.2-0.3C37.7,43.3,37.8,43.3,37.9,43.3L37.9,43.3z M38.6,36.9c0-0.1-0.1-0.2-0.2-0.3
	c-0.2-0.3,0-0.4,0.2-0.5C38.6,36.3,38.6,36.6,38.6,36.9L38.6,36.9z M37.8,32.3c0,0,0,0.1,0,0.2c0,0.1,0,0.2,0,0.3c0,0,0,0,0.1,0
	c0,0,0,0,0,0c0,0,0,0.1,0,0.2c0.2,0.4,0.3,0.9,0.4,1.3c0,0,0,0,0,0c-0.1,0-0.2,0.1-0.2,0.1c0,0-0.1,0-0.1,0c0,0,0,0,0,0c0,0,0,0,0,0
	c0,0,0,0,0-0.1c-0.2-0.7-0.4-1.3-0.6-2C37.5,32.5,37.6,32.4,37.8,32.3L37.8,32.3z M44.7,49.4L44.7,49.4
	C44.7,49.4,44.7,49.4,44.7,49.4C44.8,49.4,44.7,49.4,44.7,49.4L44.7,49.4z"/>
<path class="st4" d="M54.2,33.2c0.1,0.1,0.2,0.2,0.2,0.2c0.1,0.1,0.2,0.2,0.3,0.3c0,0,0,0,0,0c0-0.2,0-0.3,0-0.4
	c0-0.2,0-0.5-0.2-0.7c0.3-0.4,1-1.7,0.8-2.2c0,0,0-0.1,0-0.1c-0.2-0.3-0.6-0.1-0.8-0.4c-0.2-0.3,0-0.7-0.3-1c-0.4-0.3-1-0.1-1.6-0.1
	c0.1,0.3,0.2,0.6,0.3,0.9C53.4,30.9,53.3,32.3,54.2,33.2L54.2,33.2z"/>
<path class="st4" d="M57.3,44.5c0,0,0-0.1,0-0.1c0,0-0.1,0.1-0.1,0.1C57.2,44.5,57.2,44.5,57.3,44.5z"/>
<path class="st4" d="M57.6,46.1c-0.1-0.4-0.2-0.8-0.2-1.3c-0.1-0.1-0.2-0.1-0.3-0.2c-0.1,0-0.1,0-0.1-0.1c-0.1,0-0.2-0.1-0.3-0.1
	c-0.3-0.1-0.6-0.2-1-0.1c-0.4,0-0.8,0-1.1-0.1c-0.2-0.1-0.4-0.2-0.7-0.3c-0.1-0.1-0.2-0.1-0.3-0.1c0.1,0,0.2-0.1,0.3-0.1
	c0.4-0.1,0.9,0.2,1.1-0.4c0.2,0.1,0.4,0.1,0.7,0.2c0,0.5,0.5,0.9,1,1c0.2-0.2,0.4-0.4,0.6-0.6l0,0c-0.1-0.1-0.2-0.2-0.3-0.3
	c-0.1,0-0.2-0.1-0.2-0.1c-0.1,0-0.2,0-0.2-0.1c-0.2,0-0.3,0-0.4-0.1c-0.2,0-0.4-0.1-0.7-0.1c0,0-0.1,0-0.1,0c-0.2,0.1-0.4,0-0.5-0.1
	c-0.2,0-0.3,0-0.4-0.1c-0.2-0.2,0-0.6,0.2-0.8c0.2-0.3,0.5-0.3,0.9-0.4c0.2,0,0.4-0.1,0.6,0c0.3,0,0.6-0.2,0.8-0.4
	c-0.1-0.2-0.1-0.4-0.1-0.6c-0.1-0.5-0.2-1-0.4-1.5c0,0,0,0,0,0c-0.1,0-0.2-0.1-0.3-0.1c0,0-0.1,0-0.1,0c-0.1,0-0.2-0.1-0.2-0.1
	c-0.2,0-0.3-0.1-0.5-0.1c-0.2,0-0.2,0.1-0.3,0.1c-0.3,0.1-0.6,0-0.8-0.1c-0.2-0.1-0.2,0-0.4,0.1c-0.2,0.1-0.4,0-0.7,0.1
	c-0.3,0.1-0.3,0.5-0.5,0.7c-0.1,0.2-0.3,0.3-0.5,0.3h0c-0.1,0-0.1,0.1-0.2,0.1l0,0c-0.1,0-0.2,0-0.2,0c-0.2,0-0.5,0-0.7,0
	c-0.1,0-0.2,0-0.2,0c0,0-0.1,0-0.1,0c-0.3-0.1-0.5-0.3-0.6-0.5c0-0.1,0-0.2,0-0.4c0-0.1,0-0.1,0.1-0.2c0.2-0.2,0.5-0.4,0.8-0.4
	c0.3-0.1,0.5-0.2,0.7-0.3c0,0,0.1,0,0.1-0.1c0.1,0,0.2-0.1,0.2-0.1c0.2-0.3-0.2-0.9-0.2-1.3c0-0.3,0.1-0.4,0.2-0.5
	c0.3-0.2,0.8-0.1,1-0.4c0.1-0.2,0.1-0.4,0.2-0.6c0.1-0.6,0.6-1.1,1.2-1c0.3,0,0.7,0.3,1,0.2c-0.3-0.4-0.6-0.7-0.9-1.1
	c-0.1-0.1-0.1-0.1-0.2-0.2c-1-1-0.9-2.5-1.2-3.7c-0.1-0.4-0.2-0.7-0.3-1.1c-0.1,0-0.1,0-0.2-0.1c-0.5-0.4-0.3-0.7-0.3-1
	c0,0,0-0.1-0.1-0.1c0-0.1,0-0.1-0.1-0.2c-0.2-0.2-0.4-0.2-0.7-0.5c0,0,0,0,0,0c0.1,0.3,0.2,0.6,0.3,0.9c0.2,1,0.2,2.1,0.1,3
	c0,0.3-0.1,0.7-0.1,1c-0.1,0.5-0.1,1.1-0.2,1.6c0,0.3-0.1,0.6-0.1,0.9c-0.2,0-0.3,0-0.4,0c-0.1,0-0.2,0-0.2,0
	c0.2-1.2,0.3-2.4,0.5-3.6c0.1-0.7,0.1-1.5,0-2.2c0,0,0-0.1,0.1-0.1c0-0.1,0.1-0.2,0.1-0.2c0-0.2,0-0.4,0-0.6c0,0,0,0,0-0.1
	c0,0-0.1-0.1-0.1-0.1c0,0,0,0,0,0c0,0-0.1,0.1-0.1,0.2l0,0c0-0.1-0.1-0.3-0.1-0.4c0.1,0.1,0.2,0.2,0.2,0.2c0,0,0,0,0,0l0,0
	c0.1-0.2,0.1-0.2,0-0.2c-0.1,0-0.2,0-0.3,0c-0.1-0.3-0.2-0.7-0.3-1c0,0,0,0,0,0c0,0,0,0,0,0c-0.3-0.1-0.9,0.1-1.5,0.2
	c-0.4,0.1-0.8,0.3-1.2,0.4c-0.1,0-0.2,0.1-0.2,0.1c-0.1,0.1-0.3,0.2-0.4,0.2c-0.2,0.2-0.6,0.8-1,0.9c-0.2,0-0.4,0-0.7,0
	c-0.5-0.1-1-0.2-1.4-0.3c-0.2,0-0.3-0.1-0.5-0.1c-0.2-0.1-0.5-0.1-0.7-0.2c-0.3,0-0.7-0.1-1,0c0,0-0.1,0-0.1,0
	c-0.1,0-0.2,0.1-0.2,0.2c0,0,0,0,0,0c-0.1,0.1-0.1,0.1-0.2,0.1c0,0,0,0-0.1,0s0,0-0.1,0c0,0,0,0,0,0c0,0,0-0.1,0-0.1
	c0-0.1,0-0.2,0.1-0.3c0,0,0-0.1,0.1-0.1c0,0,0,0,0,0c0,0,0.1-0.1,0.1-0.1c0.1-0.1,0.2-0.2,0.3-0.2c0.2-0.1,0.4-0.1,0.6-0.2
	c0.3-0.3-0.3-0.2-0.5-0.4c-0.3-0.2,0-0.3,0.2-0.4c0,0,0,0,0,0c-0.2-0.1-0.3-0.1-0.5-0.1c0,0,0,0,0,0c-0.3,0-0.4,0-0.1-0.6
	c0.2-0.5,0.8-0.7,1.4-0.8c0.5-0.1,1-0.1,1.4,0c0.4,0.1,0.8,0.2,1.1,0.2c0.3,0,0.6,0,0.9-0.1c0.2-0.1,0.4-0.2,0.6-0.4
	c0.1-0.2,0.2-0.3,0.3-0.4c0.1-0.4-0.2-0.7-0.7-0.8c-0.4-0.2-1-0.2-1.3-0.3c0,0-0.1,0-0.1,0c-0.8-0.1-2.9,0.2-2.3-0.9
	c0-0.1,0.1-0.1,0.2-0.2c0.5-0.4,1.3-0.3,1.7-0.6c0.1-0.1,0.2-0.2,0.2-0.3c0-0.1,0-0.2,0-0.3c-0.1,0-0.3-0.1-0.3-0.1
	c-0.3-0.2-0.4-0.5-0.7-0.8c-0.5-0.5-1.3-0.9-1.9-1.4c0,0-0.1-0.1-0.2-0.2c-0.4-0.4-0.4-0.8,0.2-1c0.2-0.1,0.6-0.1,1-0.1
	c0.8,0,1.6,0,1-0.8c-0.3-0.4-0.8-0.8-1.2-0.9l0,0c-0.3-0.1-1,0-1-0.2c0,0,0-0.1,0-0.1c0,0,0.1-0.1,0.2-0.1c0.2-0.2,0.5-0.3,0.7-0.4
	c0.5-0.2,1-0.1,1.5,0c0.3,0.1,0.6,0.1,0.9,0c0.4-0.1,0.5-0.6,0.4-0.9c0-0.3-0.2-0.6,0-0.8l0,0c0-0.1,0.1-0.1,0.2-0.2
	c-0.2-0.5-0.3-1-0.5-1.5c1.2,0,1.9,0.6,2.5-0.8c0.1-0.2,0.1-0.3,0.1-0.5c-0.2-0.2-0.4-0.3-0.6-0.5c-0.5,0-0.9,0-1.4,0
	c-0.2,0-0.4,0-0.5-0.1c-0.2-0.1-0.8,0-1.1,0.2c-0.2,0.2-0.2,0.5-0.2,0.8c0,0.5,0,0.9-0.6,1.1c-0.5,0.1-0.8,0-1.4,0.2
	c-0.4,0.2-0.9,0.3-1.3,0.3c-0.5,0-1-0.1-1.5-0.2c-0.2,0-0.7,0-0.7,0.3c0,0.1,0.3,0.4,0.4,0.6c0.1,0.2,0.3,0.5,0.2,0.7
	c0,0.2-0.4,0.4-0.9,0.7c-0.5,0.3-1.1,0.5-1.4,0.7c0.4,0.3,0.6,0.5,0.6,1c0,0.2,0,0.4,0,0.6c0,0,0,0.1,0,0.2c-0.3,0.9-0.6,0.9-1.2,1
	c-0.2,0-0.3,0-0.6,0.1c0.1,0.3,0.1,0.6,0.2,0.8c0.1,0.4,0.1,0.8,0.2,1.2c0,0.1,0,0.2,0,0.3c0,0.2,0,0.4-0.1,0.5
	c0,0.1-0.1,0.2-0.2,0.3c-0.1,0.1-0.1,0.1-0.2,0.2c-0.2,0.2-0.5,0.5-0.7,0.7c-0.1,0.1-0.1,0.3-0.1,0.4c0,0.1,0.1,0.3,0,0.4
	c-0.2,0.2-1,0.1-1.2,0.2c-0.6,0-1,0.2-1,0.5c0,0.2,0.2,0.5,0.6,0.8c0.4,0.3,1.3,0.8,1.8,1.3c0.2,0.2,0.3,0.4,0.3,0.6
	c0,0.1,0,0.3,0,0.4c-0.3,0.8-1.6,0.2-2,1c-0.2,0.3-0.1,0.5,0.1,0.6c0.2,0.1,0.6,0.2,1.1,0.2c0.4,0,0.8,0,1,0c0,0,0,0,0,0
	c0.1,0,0.2,0,0.4,0.1c0.2,0,0.3,0.1,0.5,0.1c0.7,0.2,1.3,0.5,0.8,1.1c-0.2,0.3-0.5,0.5-0.8,0.6c-0.1,0-0.1,0-0.2,0
	c-0.1,0-0.1,0-0.2,0c0,0,0,0-0.1,0c0,0-0.1,0-0.1,0c-0.1,0-0.3,0-0.4,0c0,0,0,0,0,0c-0.1,0-0.2,0-0.4,0c-0.3,0-0.6,0-0.9,0
	c-0.6,0-1.2,0.2-1.5,0.7c0,0,0,0,0,0c0,0,0,0,0,0c-0.3,0.6,0,0.4,0.4,0.6c0.1,0,0.2,0.1,0.2,0c-0.2,0-0.7,0.2-0.4,0.4
	c0.2,0.1,0.6,0.1,0.4,0.4c-0.1,0.1-0.3,0.2-0.4,0.3s-0.2,0.2-0.3,0.3c-0.1,0.2-0.2,0.3,0,0.4c0.2,0.2,0.2,0,0.4-0.1
	c0.2-0.1,0.5,0,0.8,0.1c0,0,0,0,0,0c0,0,0,0,0,0c0.3,0.1,0.7,0.2,1,0.3c0.1,0,0.2,0.1,0.3,0.1c0.1,0,0.1,0,0.2,0.1
	c0.2,0.1,0.5,0.1,0.8,0.2c0.2,0,0.3,0.1,0.5,0c0,0,0,0,0.1,0s0,0,0,0c0.2,0,0.4-0.3,0.6-0.4c0.1,0,0.1-0.1,0.2-0.2
	c0.1,0,0.2-0.1,0.3-0.1c0.1,0,0.2-0.1,0.3-0.1c0,0,0.1,0,0.1,0c0,0,0.1,0,0.2,0c0,0,0,0,0,0c0.1,0,0.2,0,0.2-0.1
	c0.4-0.1,0.9-0.2,1.2-0.2c0.2,0,0.3,0,0.4,0c0.5,0.1,0.4,0.3,0.7,0.7c0.3,0.3,0.5,0.2,0.6,0.7c0.1,0.3-0.1,0.6,0.3,1
	c0.4,0.4,0.9,0.2,1.3,0.3c0.1,0,0.2,0.1,0.3,0.2c0.2,0.2,0,0.6,0.2,0.9c0,0,0,0,0,0c0.2,0.2,0.5,0.1,0.6,0.4c0,0.1,0,0.3,0,0.5
	c0,0.2-0.1,0.4-0.2,0.7c-0.1,0.2-0.1,0.3-0.2,0.5c0,0.1-0.1,0.2-0.1,0.3c0.2,0.3,0.1,0.6,0.2,0.9c0.1,0.3,0.5,0.9,0.2,1.1
	c-0.1,0.1-0.2,0-0.4,0.1c-0.2,0-0.4,0.1-0.6,0.3c-0.1,0.1-0.2,0.2-0.3,0.3c0,0.1,0.1,0.2,0.1,0.3c0,0.1,0,0.1-0.1,0.2
	c-0.1,0.1-0.3,0.2-0.5,0.3c-0.2,0.1-0.4,0.2-0.3,0.4c0.1,0.2,0.5,0.4,0.5,0.6c0,0.1,0,0.1-0.1,0.2c-0.1,0.2-0.6,0.2-0.8,0.3
	c-0.3,0.1-1,0.5-0.9,1c0,0.5,1,0.5,1.4,0.6c0.3,0,0.5-0.1,0.6-0.2c0.2-0.1,0.2-0.4,0.5-0.4c0.2-0.1,0.4,0,0.5-0.1
	c0.1,0,0.1-0.1,0.2-0.1c0,0,0.1,0,0.1,0c0.2,0.1,0.4,0.2,0.7,0.2c0,0,0,0,0,0s0,0,0,0c0.1,0,0.2,0,0.3,0h0c0.1,0,0.2,0,0.2,0.1
	c0,0,0,0,0,0c0.1,0,0.1,0.1,0.2,0.1c0.1,0,0.1,0,0.2,0c0.1,0,0.2,0.1,0.2,0.1c0.1,0,0.1,0,0.2,0.1c0,0,0,0,0.1,0c0,0,0.1,0,0.1,0
	c0.1,0,0.2,0,0.2,0.1c-0.1,0.1-0.2,0.2-0.2,0.3s0,0.2,0.1,0.4c0.3,0.1,0.7,0.2,0.7,0.6l0,0c-0.2,0-0.4,0.1-0.5,0.2
	c-0.1,0.1-0.1,0.2-0.1,0.3c0,0.1,0,0.1,0,0.1c0,0,0,0,0,0c-0.2,0-0.3,0-0.5,0c-0.1,0-0.1,0-0.2,0c0,0,0,0,0,0c-0.1,0-0.1,0-0.2,0
	c-0.1,0-0.2,0.1-0.3,0.2c0,0,0,0.1-0.1,0.1c0,0.1-0.1,0.1-0.1,0.2c0,0,0,0.1,0,0.1c-0.1,0.2-0.1,0.3-0.1,0.4c0,0.2,0.2,0.3,0.5,0.3
	c0,0,0,0,0,0c0.1,0,0.2,0,0.3-0.1c0,0,0,0,0.1,0c0.1,0,0.2-0.1,0.2-0.1c0,0.2,0,0.2,0.1,0.3c0.1,0.1,0.2,0.1,0.3,0.2
	c0.1,0,0.3,0,0.4-0.1c0.1,0,0.2,0,0.2-0.1c0,0.2,0,0.3,0.2,0.4c0,0,0.1,0.1,0.2,0.1s0.1,0.1,0.2,0.1c0,0.1,0,0.1,0.1,0.2
	c-0.1,0.1-0.1,0.1-0.1,0.2c0.1,0,0.2,0.1,0.2,0.1c-0.3,0.3-0.1,0.7,0.2,0.8c0.1,0,0.1,0.1,0.2,0.1c0,0.2,0,0.3,0,0.4
	c0,0.3,0.3,0.4,0.6,0.6c0.1,0,0.5,0.5,0.6,0.5c-0.2,0.3-0.4,0.8,0,1.1c0,0,0.1,0,0.2,0.1c0-1.7,0.2-3.3,0-5c0-0.3,0-0.6,0-0.8
	c0,0,0.1,0.1,0.2,0.1c0.2,0.2,0.2,0.3,0.2,0.5c0,0.2,0.1,0.3,0.2,0.5c0.3,0.3,0.2,0.6,0.5,0.9c0,1.5,0,2.9,0.1,4.4c0,0,0,0,0,0
	c0,0,0.1,0,0.1,0c0.2-0.8,0.5-1.5,0.9-2.3c0.2-0.5,0.5-1,0.8-1.5c0,0,0-0.1,0.1-0.1c0.1-0.1,0.2-0.2,0.2-0.3c0,0,0.1,0.1,0.1,0.1
	c0.2,0.1,0.2,0.3,0.3,0.4c0,0.1-0.1,0.1-0.1,0.1c-0.2,0.4-0.4,0.8-0.6,1.2c-0.4,0.8-0.7,1.6-1,2.4c0.2,0,0.3,0,0.4,0
	c0.2,0.1,0.2,0.2,0.3,0.3c0.1,0.1,0.1,0.2,0.3,0.2c0.4,0,0.3-0.2,0.5-0.3c0.3-0.2,0.8-0.2,1.1-0.5c0.1-0.1,0.2-0.2,0.3-0.4
	c0-0.1,0-0.1,0-0.2c0-0.2,0-0.3,0.1-0.4c0.2-0.2,0.2-0.1,0.4-0.2c0.2-0.2,0.3-0.2,0.4-0.3c0-0.1,0.1-0.2,0.1-0.3
	c0.2-0.4,0.1-0.9,0.1-1.3c0,0,0.1-0.1,0.1-0.1c0.1-0.1,0.2-0.2,0.2-0.2c0.4,0,0.7-0.1,1.1-0.3c0.6-0.4,0.7-0.6,0.6-1.3
	c0-0.3,0-0.6-0.1-0.7C57.5,46.3,57.5,46.3,57.6,46.1C57.5,46.1,57.6,46.1,57.6,46.1L57.6,46.1z M46.8,35.3c0.2-0.6,0.3-1.3,0.4-1.9
	c0.1,0,0.1,0,0.2,0c0.1,0,0.2,0,0.3,0c-0.1,0.8-0.3,1.6-0.5,2.4C47.1,35.6,46.9,35.5,46.8,35.3z M46.7,36.9c0.1,0,0.2,0.1,0.2,0.1
	c-0.1,0.4-0.2,0.8-0.3,1.1c0,0.1-0.1,0.2-0.1,0.3c-0.1,0.3-0.1,0.6-0.1,1c-0.1,0.1-0.2,0.3-0.3,0.5c0,0.2,0,0.3-0.1,0.4
	c0,0-0.1,0.1-0.1,0.1c-0.1,0-0.2,0.1-0.2,0.1c0,0,0,0,0,0c0-0.1,0-0.2,0-0.2c0-0.2,0-0.4,0-0.6c0-0.4,0.1-0.9,0.2-1.3
	c0.1-0.5,0.3-1.1,0.5-1.6C46.5,36.8,46.6,36.8,46.7,36.9L46.7,36.9z M46.3,42.4c0,0,0.1-0.1,0.2-0.1c0,0,0,0.1,0,0.1c0,0,0,0,0,0.1
	h0l-0.1,0.1L46,42.7C46.1,42.6,46.2,42.5,46.3,42.4L46.3,42.4z M50,42c0.1,0,0.2,0.1,0.3,0.1c0,0.1,0,0.2,0,0.4c0,0-0.1-0.1-0.1-0.1
	C50.1,42.3,50.1,42.1,50,42L50,42z"/>
<path class="st5" d="M70.8,33c0,0.1,0,0.1-0.1,0.2c-0.2,0.7-0.2,1.3-0.3,2c-0.1,0.5-0.2,1.1-0.4,1.6c0,0,0,0,0,0.1
	c0,0.1-0.1,0.1-0.1,0.2c0,0,0,0.1-0.1,0.1c0,0,0,0,0,0c0,0,0.1,0,0.1,0.1c0,0,0.1,0,0.1,0.1c0,0,0-0.1,0-0.1c0-0.1,0.1-0.2,0.1-0.3
	c0.2-0.5,0.2-1,0.3-1.6c0.1-0.7,0.1-1.4,0.3-2c0-0.1,0.1-0.2,0.1-0.3C70.9,33,70.8,33,70.8,33L70.8,33z"/>
<path class="st5" d="M31.2,56.8c-0.1,0.1-0.3,0.1-0.4,0.1c-0.1,0.2-0.3,0.3-0.4,0.4c-0.3,0.3-0.5,0.6-0.8,0.8c-1,0.9-2,1.7-2.7,2.8
	c0,0,0,0.1,0,0.1c-0.3,0.4-0.5,0.9-0.7,1.3c-0.3,0.6-0.5,1.2-0.7,1.8c0,0.2-0.1,0.3-0.2,0.5c0-0.2,0-0.3,0-0.5c0-1.2,0-2.3,0-3.5
	c0-0.4,0-0.9-0.1-1.3c0-0.2,0-0.4,0-0.6c0-0.4,0-0.9-0.1-1.4c-0.1,0-0.3-0.1-0.4-0.1c-0.2-0.1-0.3-0.3-0.5-0.5c0,0.8,0,1.7,0.1,2.5
	c0,0,0,0.1,0,0.1c0,0.6,0,1.1,0,1.7c0,0.1,0,0.2,0,0.2c0,0.6,0,1.1,0,1.7c0,0.1,0,0.2,0,0.2c-0.1,1.6-0.1,3.2,0.2,4.9
	c0-0.1-0.1-0.2-0.1-0.2c-0.4-0.6-0.7-1.1-0.8-1.7c-0.1-0.5-0.2-1.1-0.2-1.6c0,0,0,0,0,0c0.2-0.5,0.1-0.7-0.1-0.9
	c0-0.2,0-0.4-0.1-0.7c0.2,0.1,0.4,0.1,0.5,0.1c0,0,0,0,0,0c-0.1,0-0.1-0.1-0.2-0.1c0-0.1-0.1-0.2-0.1-0.3c-0.1-0.1-0.2-0.3-0.1-0.5
	c0-0.1,0-0.2,0.1-0.3c0,0-0.1,0-0.1-0.1c0-0.1,0-0.1,0-0.1c0,0-0.1-0.1-0.1-0.1c-0.1-0.1-0.2-0.2-0.2-0.2c0,0,0,0,0,0
	c-0.1-0.1-0.2-0.2-0.2-0.3c-0.1,0-0.2-0.1-0.3-0.1c0,0-0.1-0.1-0.1-0.1c-0.1-0.1-0.1-0.2-0.1-0.4c-0.1,0-0.2,0-0.3,0
	c-0.3,0-0.5-0.3-0.4-0.6c0-0.1,0-0.1,0.1-0.2c0-0.1-0.1-0.1-0.1-0.2c0.1-0.1,0.1-0.1,0.2-0.1l0,0c0,0,0,0,0-0.1c0,0,0-0.1-0.1-0.1
	c0,0,0,0,0-0.1c0,0,0,0,0-0.1c0-0.1,0-0.2,0-0.2c0,0,0,0-0.1,0c0,0,0,0-0.1,0c0,0,0,0,0,0c-0.1-0.1-0.4-0.1-0.6-0.3
	c0-0.1-0.1-0.2-0.1-0.2c-0.1,0-0.1,0-0.1,0c-0.1,0-0.3-0.1-0.4-0.2c0,0-0.1-0.1-0.1-0.1c-0.1,0-0.1-0.1-0.1-0.1c0,0-0.1-0.1-0.1-0.1
	c-0.1-0.1-0.1-0.1-0.2-0.2s-0.1-0.1-0.2-0.1c-0.1-0.1-0.3-0.2-0.4-0.3c0,0-0.1,0-0.1,0c0,0,0,0-0.1,0c-0.1,0-0.2,0-0.4-0.1
	c-0.1,0-0.1,0-0.2,0c-0.1,0-0.2,0-0.3,0c-0.1,0-0.3,0-0.5-0.1c-0.5-0.2-1.1-0.4-0.9-0.6c0.2-0.2,0.5-0.5,0.6-0.7
	c0.1-0.1,0.2-0.2,0.2-0.4c0-0.2-0.1-0.3-0.2-0.4c-0.1-0.1-0.1-0.1-0.2-0.2c-0.1-0.1,0-0.2,0-0.2c0-0.1,0-0.1,0-0.2c0,0,0-0.1,0-0.1
	S17,54.3,17,54.2c0-0.1,0-0.1-0.1-0.2c0-0.1,0-0.1,0-0.2c0,0,0,0,0-0.1c0-0.1-0.2-0.3-0.4-0.5c0,0,0,0,0-0.1
	c-0.1-0.2-0.1-0.3-0.3-0.5c0-0.2,0-0.6,0-0.9c0,0,0-0.1,0-0.1c0-0.1,0-0.2,0-0.2c0-0.2-0.2-0.2-0.2-0.4c0,0,0,0,0,0
	c0-0.2,0-0.3,0-0.5c0,0,0-0.1,0-0.1c-0.1-0.2-0.2-0.3-0.3-0.5c-0.1-0.1-0.1-0.1-0.2-0.2c-0.1-0.2-0.1-0.4-0.1-0.7
	c0-0.1,0-0.1-0.1-0.2c0,0,0,0,0-0.1c-0.1-0.1-0.1-0.2-0.2-0.3c0,0,0,0,0,0c-0.1-0.2-0.2-0.3-0.3-0.4c0,0-0.1-0.1-0.1-0.1
	c-0.2-0.1-0.4-0.1-0.6-0.2c-0.4-0.1-0.7-0.1-1-0.1c0,0,0,0-0.1,0l0,0c-0.2,0-0.4,0.1-0.6,0.1c-0.1,0-0.3-0.1-0.4-0.2
	c-0.2-0.1-0.4-0.1-0.6-0.2s-0.4-0.2-0.6-0.3c0,0,0,0,0,0c-0.1-0.1-0.3-0.2-0.4-0.2c-0.1,0-0.1,0-0.2-0.2c-0.1-0.1-0.1-0.2,0-0.3
	c0-0.1,0-0.2,0.1-0.3c0,0,0-0.1,0.1-0.1c0,0,0-0.1,0-0.1c0.1-0.2-0.1-0.2-0.1-0.3c-0.1-0.2,0.1-0.3,0.1-0.4c0,0,0-0.1-0.1-0.1
	c-0.1-0.2-0.2-0.2,0-0.6c0.4-0.7,1.2-0.7,1.9-0.8c0.4,0,0.8-0.1,1.1-0.3c0.3-0.2,0.4-0.4,0.4-0.6c0-0.5-0.9-0.7-1.4-0.8
	c-0.1,0-0.2,0-0.3,0c-0.7,0-2.2,0.1-1.8-0.7c0.3-0.6,1.3-0.3,1.6-0.7c0.1-0.1,0.1-0.2,0.1-0.3c0-0.7-0.9-1.3-1.5-1.7
	c-0.3-0.2-0.5-0.4-0.6-0.5c-0.3-0.3-0.2-0.5,0-0.7c0.1-0.1,0.6-0.1,0.9-0.2c0.1,0,0.1-0.1,0.2-0.1c0,0,0.1-0.1,0.2-0.1
	c0.2-0.1,0.6-0.2,0.7-0.3c0-0.1,0.1-0.1,0.1-0.2c0-0.1,0-0.2,0-0.2c0-0.1,0-0.3,0-0.5c0-0.1,0-0.2,0.1-0.3c0,0,0,0,0-0.1
	c-0.4,0-0.8,0-1.1-0.1c-0.6-0.1-0.6-0.4-1.2,0.2c-0.3,0.3-0.8,0.8-1,1.2c-0.6,0.9-0.9,1.8-1.9,2.5c-0.8,0.6-2,0.7-2.8,1.2
	c0.6,0.3,1.1,0.9,0.8,1.6c-0.4,1.1-1,0.6-1.9,0.6c0.1,0.4,0.3,0.8,0.4,1.2c0,0-0.1,0-0.1,0.1c-0.1,0.2,0,0.4,0,0.6
	C3.1,44.7,3,45,2.7,45.1c-0.6,0.2-1.2-0.3-1.9,0c-0.2,0.1-0.5,0.2-0.7,0.4c0,0,0,0.1,0,0.1c0.1,0.1,0.6,0,0.8,0.1h0
	c0.3,0.1,0.7,0.4,0.9,0.7c0.7,0.9-1.1,0.5-1.6,0.7c-0.4,0.1-0.4,0.4-0.1,0.7c0,0,0.1,0.1,0.1,0.1c0.4,0.4,1,0.6,1.4,1.1
	c0.2,0.2,0.3,0.4,0.5,0.6c0.1,0,0.1,0.1,0.2,0.1c0,0.1,0.1,0.2,0.1,0.3c-0.2,0.7-1.3,0.2-1.6,0.9c-0.4,0.9,1.3,0.6,1.9,0.7
	c0.6,0.1,2.1,0.3,1.3,1.2c-0.8,0.8-1.9,0.2-2.6,1.2c-0.4,0.8-0.3,2,0.2,2.7c0.8,1.1,2.4,1,3.1,2.2c0.5,0.9,0,1.9,0.2,2.8
	c0.4,1.3,1.6,1.3,2.4,1.8c0.1,0.1,0.2,0.2,0.4,0.3c0,0.1,0,0.1,0,0.2c-0.3,0.4-1,0.3-1.4,0.7c-0.5,0.5,0.3,1,0.8,0.8
	c0.2,0,0.4-0.1,0.5-0.3c0.5,0.4,1.8,0.9,1.8,0.9c0.2,0.1,0.4,0.4,0.5,0.7c0,0-0.1,0-0.1,0.1c-0.1,0.2-0.2,0.5-0.1,0.6
	c0.1,0.2,0.5,0.1,0.8,0.2c0.2,0,0.4,0.1,0.6,0.1c0.1,0,0.2,0.1,0.2,0.1c0.3,0,0.5,0.2,0.6,0.4c0.1,0.7,0.3,1.4,0.4,2.1
	c0.2,1.3,0.2,2.6,0.4,3.9c0.1,1.3,1.3,2.3,1.5,3.6c0.1,0.6,0.2,1.2,0.2,1.8h0c0,1.2,0,2.4,0,3.6c-0.2,2.5-0.2,5.1-0.3,7.6L14,92.6
	c0.4-0.3,0.9-0.6,1.3-0.9c0.1-1.5,0.1-2.9,0.1-3.8c0-1.5,0-3,0.1-4.6c0-1.2,0-2.5-0.1-3.7h0.1c0-0.2,0-0.3-0.1-0.5
	c0-0.4,0-0.7,0-1.1c0.1-0.5,0.4-0.9,0.5-1.4c0.2-1.3,0.3-2.5,0.5-3.8c0,0,0-0.1,0-0.1c0,0,0.1,0.1,0.2,0.1c0.3,0.1,0.2-0.2,0.4-0.3
	c0.3-0.2,1-0.2,1.2-0.6c0.1-0.2,0-0.4,0.1-0.5c0.1-0.2,0.1-0.1,0.3-0.2c0.3-0.3,0.3,0,0.5-0.5c0.2-0.5,0-0.9,0.1-1.4
	c0.4,0.1,0.7,0,1.1-0.3c0.5-0.3,0.5-0.5,0.5-1c0-0.5,0-0.7-0.4-1.1c-0.2-0.2-0.4-0.2-0.7-0.3c0.3-0.3,0.5-0.6,0.8-0.8
	c0.4,0,0.7-0.3,0.8-0.8c0.3,0.1,0.6,0.4,0.7,0.7c0.2,0,0.4-0.1,0.6-0.2c0,0.3,0,0.6,0.1,0.9c0.2,1.4,1.3,2.5,1.6,3.9
	c0.1,0.7,0.2,1.3,0.2,2l0,0c0,1.3,0.1,2.6,0,3.9c-0.2,2.7-0.2,5.5-0.3,8.2l-0.2,2c0.5-0.3,0.9-0.5,1.4-0.8c0.1-1.7,0.1-3.4,0.1-4.4
	c0-1.7,0-3.3,0.1-4.9c0-1.3-0.1-2.7-0.1-4h0.1c0-0.2-0.1-0.4-0.1-0.6c0-0.4,0-0.8,0-1.1c0-0.5,0.4-1,0.5-1.5
	c0.2-1.4,0.3-2.7,0.5-4.1c0-0.1,0-0.2,0-0.2c-0.3-0.1-0.4-0.2-0.6-0.3c0.2-0.7,0.5-1.4,0.8-2.1c0.2-0.4,0.3-0.7,0.6-1.1
	c0.7-1.2,1.8-2.1,2.8-3c0.3-0.3,0.6-0.6,0.8-0.9C31,57.2,31.1,57,31.2,56.8C31.3,56.8,31.3,56.8,31.2,56.8
	C31.3,56.8,31.3,56.8,31.2,56.8C31.3,56.8,31.2,56.8,31.2,56.8L31.2,56.8z M15.2,72.7c0-0.1,0-0.3,0-0.4c0,0,0.1,0,0.1,0
	C15.2,72.4,15.2,72.6,15.2,72.7z M22.1,63.1c0,0-0.1-0.1-0.1-0.1c0-0.1,0.1-0.2,0.1-0.2c0.1-0.2,0.1-0.4,0.1-0.5
	c0,0.3,0.1,0.7,0.1,1C22.2,63.1,22.2,63.1,22.1,63.1L22.1,63.1z M23,62C23,62,23,62,23,62C23,62,23,62,23,62C23,61.9,23,62,23,62
	L23,62z M21.7,61.4c0.1-0.1,0.2,0,0.4,0c0,0.1,0,0.2,0,0.3c-0.1,0.3-0.1,0.7-0.2,1c0,0.1,0,0.1-0.1,0.2c-0.3-0.2-0.5-0.4-0.5-0.7
	C21.3,62.1,21.7,61.4,21.7,61.4L21.7,61.4z M14.4,75.6c-0.4-0.6-0.7-1-0.8-1.6c-0.2-1.2-0.3-2.5-0.5-3.8c0.1,0.1,0.2,0.1,0.3,0.1
	c0.1,0.1,0.4,0.5,0.4,0.4c-0.2,0.2-0.4,0.7,0,0.9c0.1,0.1,0.2,0.1,0.4,0.1c0,1.4,0,2.7,0.2,4.1C14.4,75.7,14.4,75.6,14.4,75.6
	L14.4,75.6z M19.2,66.4C19.2,66.4,19.2,66.4,19.2,66.4c-0.7-0.1-1.5-0.8-2-0.8c0.1-0.5,0.1-0.5,0.5-0.6c0.4-0.1,0.7,0.2,0.9-0.3
	c0.2,0.1,0.3,0.1,0.6,0.1c0,0.4,0.4,0.7,0.8,0.8C19.8,65.9,19.5,66.2,19.2,66.4L19.2,66.4z M25.4,67L25.4,67c0.1-0.7,0.2-1.3,0.3-2
	C25.6,65.7,25.5,66.3,25.4,67z"/>
<path class="st5" d="M32.8,52.4C32.8,52.4,32.8,52.4,32.8,52.4c0.1,0.1,0.1,0.2,0.1,0.3c0,0-0.1,0.1-0.1,0.1c0,0,0,0,0,0
	c0,0,0,0,0,0c0,0.2-0.1,0.4-0.1,0.5c0.1,0,0.1,0,0.2,0c0,0,0,0,0,0c0-0.2,0.1-0.3,0.1-0.5c0-0.5,0.1-0.9,0.2-1.4
	c0,0.1-0.1,0.1-0.2,0.2C32.8,51.9,32.8,52.1,32.8,52.4L32.8,52.4z"/>
<path class="st5" d="M32.3,54.3c-0.1,0.3-0.3,0.7-0.4,1c0.1,0,0.2,0,0.3,0.1c0.1-0.3,0.2-0.6,0.3-0.9c0-0.1,0.1-0.1,0.1-0.2
	C32.5,54.2,32.4,54.2,32.3,54.3C32.3,54.3,32.3,54.3,32.3,54.3L32.3,54.3z"/>
<path class="st5" d="M21.9,50.7C21.9,50.7,21.9,50.7,21.9,50.7C21.9,50.7,21.9,50.8,21.9,50.7C21.9,50.8,21.9,50.8,21.9,50.7
	L21.9,50.7z"/>
<path class="st5" d="M21,53.4c0.1-0.1,0.1-0.2,0-0.3c0,0,0-0.1-0.1-0.1c0,0,0,0,0,0c0,0.1,0,0.1,0,0.2C20.9,53.2,20.9,53.3,21,53.4
	c-0.1,0-0.1,0.1-0.1,0.1C20.9,53.5,20.9,53.4,21,53.4C21,53.4,21,53.4,21,53.4L21,53.4z"/>
<path class="st5" d="M21.4,55.6L21.4,55.6C21.5,55.6,21.5,55.5,21.4,55.6c0-0.2,0-0.2-0.1-0.3c0-0.1,0-0.1-0.1-0.2
	c-0.2-0.1-0.3-0.2-0.5-0.3c0,0.3,0,0.6,0.1,0.9L21.4,55.6L21.4,55.6z"/>
<path class="st5" d="M25,34.9c0.1-0.2,0-0.3-0.1-0.5C25,34.7,25,34.8,25,34.9C25,35,25,35,25,34.9L25,34.9z"/>
<path class="st5" d="M25.3,51.2c0-0.1,0-0.3,0-0.4c-0.1,0-0.1,0-0.2,0.1c0,0,0,0-0.1,0C25.1,50.9,25.2,51,25.3,51.2z"/>
<path class="st5" d="M24.6,39.9c0.2,0.9,0.6,1.8,0.8,2.7c0.1,0.4,0.1,0.8,0.1,1.2c0,0,0,0.1,0,0.1c0,0.3,0,0.7-0.1,1
	c0,0,0.1,0,0.1-0.1c0.1,0,0.1-0.1,0.2-0.1c0.1,0,0.1-0.1,0.2-0.1c0-0.7,0-1.4-0.1-2.1c-0.1-0.4-0.2-0.8-0.4-1.2
	c0-0.1-0.1-0.2-0.1-0.3c-0.1-0.3-0.2-0.6-0.3-0.9c0-0.1,0-0.1,0-0.1c-0.1,0-0.2-0.1-0.2-0.1C24.7,39.8,24.7,39.8,24.6,39.9
	C24.7,39.9,24.6,39.9,24.6,39.9L24.6,39.9z"/>
<path class="st5" d="M25.5,49.1c0-0.3,0.1-0.7,0.1-1c-0.1,0.2-0.2,0.4-0.4,0.5c-0.1,0.1-0.2,0.1-0.3,0.2c0,0.1,0,0.2,0,0.3
	c0,0.1,0,0.2,0,0.3c0,0,0,0,0.1,0C25.1,49.2,25.3,49.2,25.5,49.1L25.5,49.1L25.5,49.1z"/>
<path class="st5" d="M24.7,39.8c0.1,0,0.1-0.1,0.2-0.1c0-0.1,0-0.2,0-0.4c0,0-0.1,0-0.2,0c0,0-0.1,0.1-0.2,0.1c0,0.1,0,0.2,0,0.2
	C24.6,39.8,24.7,39.8,24.7,39.8L24.7,39.8z"/>
<path class="st5" d="M33.7,51.1c0.1,0.2,0.1,0.5,0.2,0.7c0-0.1,0-0.2,0.1-0.3c0-0.1,0.1-0.1,0.2-0.1C34.1,51.3,33.9,51.2,33.7,51.1z
	"/>
<path class="st5" d="M41.8,51.8C41.8,51.8,41.7,51.8,41.8,51.8c-0.9,0.6-1.7,1.4-2.3,2.3c0,0,0,0.1-0.1,0.1
	c-0.3,0.5-0.5,0.9-0.8,1.4c-0.3,0.6-0.5,1.3-0.8,2c0,0.2-0.1,0.3-0.2,0.5c0-0.2,0-0.5,0-0.7c0-1.9,0-3.8-0.2-5.6
	c-0.1-1.2-0.1-2.5-0.1-3.8c0,0,0,0-0.1-0.1c-0.1,0.1-0.2,0.2-0.3,0.3c-0.1,0.1-0.3,0.2-0.5,0.3c-0.1,1.3-0.1,2.7,0,4
	c0.1,1.3,0,2.6,0,3.9c0,0.1,0,0.2,0,0.3c0,0.1,0,0.2,0,0.4c0,1.6,0,3.2,0.3,4.8c0-0.1-0.1-0.2-0.1-0.2c-0.4-0.6-0.8-1.2-0.9-1.8
	c-0.2-1.5-0.3-3-0.6-4.5c0-0.1,0-0.1,0-0.2c-0.1-0.1-0.1-0.2-0.1-0.4c0-0.2-0.1-0.4-0.1-0.6c0,0,0,0,0,0c-0.1-0.1-0.2-0.1-0.3-0.2
	c-0.1-0.1-0.2-0.2-0.2-0.4c-0.1,0-0.3,0-0.5,0c0.1,0.3,0.1,0.6,0.2,0.9c0,0,0,0,0,0s0,0,0,0c0,0.3,0.1,0.5,0.1,0.8
	c0.2,1.5,0.2,3,0.4,4.5c0.2,1.5,1.4,2.7,1.7,4.2c0.1,0.7,0.2,1.4,0.2,2.1l0,0c0,1.4,0.1,2.8,0,4.2c-0.2,2.9-0.2,5.8-0.3,8.7
	l-0.1,1.5c0.5-0.2,1-0.3,1.5-0.5c0.1-1.7,0.1-3.4,0.1-4.5c0-1.8,0-3.5,0.1-5.2c0-1.4-0.1-2.8-0.1-4.2h0.1c0-0.3-0.1-0.6-0.1-0.8
	c0-0.3,0-0.6,0-1c0-0.5,0.5-1.1,0.5-1.6c0.2-1.5,0.3-2.9,0.6-4.4c0-0.1,0-0.2,0-0.3c0,0-0.1,0-0.1-0.1c-0.2,0-0.4-0.1-0.5-0.1
	c0.2-0.8,0.5-1.5,0.9-2.2c0.2-0.4,0.4-0.8,0.6-1.2c0.6-0.9,1.3-1.7,2.1-2.4c0,0,0,0,0,0C41.9,52,41.8,51.9,41.8,51.8L41.8,51.8z
	 M38,60.6C38,60.6,38,60.6,38,60.6c0.1-0.8,0.2-1.5,0.4-2.2C38.3,59.2,38.1,59.9,38,60.6L38,60.6z"/>
<path class="st5" d="M45.3,47.2C45.3,47.2,45.3,47.2,45.3,47.2c-0.2,0.4-0.4,0.8-0.7,1.3c0.1,0.1,0.2,0.1,0.3,0.2
	c0.2-0.4,0.4-0.8,0.6-1.3l0,0C45.5,47.3,45.4,47.3,45.3,47.2L45.3,47.2z"/>
<path class="st5" d="M34.8,41c0.1-0.4,0.2-0.9,0.2-1.3c-0.2,0-0.3,0-0.5,0.1c0,0.2-0.1,0.3-0.1,0.4c0,0.2,0,0.5,0.2,0.6
	C34.7,40.9,34.7,40.9,34.8,41L34.8,41z"/>
<path class="st5" d="M33.8,48.4L33.8,48.4c-0.2-0.7-0.1-1.4,0-2.1c0-0.2,0-0.3,0-0.4c0-0.4,0-0.9,0.1-1.3c0-0.1,0-0.1,0-0.2
	c0,0-0.1,0-0.1,0c-0.1-0.1-0.2-0.2-0.3-0.3c0,0-0.1-0.1-0.1-0.1c0,0.2-0.1,0.3-0.1,0.5c-0.1,0.4-0.2,0.8-0.2,1.2c0,0.5,0,1-0.1,1.5
	c0,0.4,0,0.8,0.1,1.2c0,0.1,0,0.2,0.1,0.3l0.5-0.2h0l0.1,0L33.8,48.4L33.8,48.4z"/>
<path class="st5" d="M38.6,36.1c-0.2,0.1-0.4,0.2-0.2,0.5c0.1,0.1,0.1,0.2,0.2,0.3C38.6,36.6,38.6,36.3,38.6,36.1L38.6,36.1z"/>
<path class="st5" d="M38,34.6C38,34.6,38,34.6,38,34.6C38,34.6,38.1,34.6,38,34.6c0.1,0,0.2-0.1,0.2-0.1c0.1,0,0.2-0.1,0.2-0.1
	c0,0,0,0,0,0c-0.1-0.5-0.3-0.9-0.4-1.3c0,0,0-0.1,0-0.2c0,0,0,0,0,0c0,0,0,0-0.1,0c0-0.1,0-0.2,0-0.3c0,0,0-0.1,0-0.2
	c-0.1,0.1-0.3,0.1-0.4,0.1C37.6,33.2,37.8,33.8,38,34.6C38,34.5,38,34.6,38,34.6L38,34.6z"/>
<path class="st5" d="M38,42.2c0-0.3,0.1-0.6,0.1-0.8c0-0.5,0.1-1,0.2-1.5c-0.1-0.1-0.2-0.1-0.4-0.1c-0.1,0-0.1,0-0.2,0
	c-0.1,0.5-0.2,1.1-0.2,1.6c0,0.2,0,0.4-0.1,0.7c0.2,0,0.3,0.1,0.5,0.1C37.9,42.1,37.9,42.2,38,42.2L38,42.2z"/>
<path class="st5" d="M37.9,43.7c0-0.1,0-0.3,0-0.4c-0.1,0-0.2,0.1-0.3,0.1C37.7,43.4,37.8,43.5,37.9,43.7L37.9,43.7z"/>
<path class="st5" d="M38.2,37.7c-0.1,0-0.1,0-0.2-0.1c0,0,0,0-0.1,0c0,0.3-0.1,0.6-0.1,0.9c0.1,0,0.2,0,0.3,0c0.1,0,0.1,0.1,0.1,0.1
	c0.1,0,0.1,0.1,0.2,0.1c0-0.2,0-0.3,0.1-0.5c0-0.2,0-0.3,0.1-0.5c0,0,0,0,0,0c0,0,0,0-0.1,0C38.3,37.7,38.3,37.7,38.2,37.7
	L38.2,37.7z"/>
<path class="st5" d="M46.3,44.7c0-0.1-0.1-0.2-0.1-0.4c0-0.1,0.1-0.2,0.2-0.3c-0.1,0-0.2,0-0.2-0.1c0,0-0.1,0-0.1,0c0,0,0,0-0.1,0
	l0,0.2c-0.1,0.4-0.2,0.8-0.2,1.2c0,0.2-0.1,0.4-0.1,0.6c0,0,0,0,0,0c0.1,0,0.1,0,0.2,0c0-0.2,0.1-0.3,0.1-0.5c0-0.3,0.1-0.6,0.1-0.9
	c0.1,0.4,0.2,0.8,0.3,1.2c0,0.1,0,0.1,0,0.2c0-0.1,0-0.1,0-0.1c0-0.1,0-0.2,0.1-0.3c0.1-0.1,0.3-0.2,0.5-0.2
	C47,44.9,46.7,44.8,46.3,44.7L46.3,44.7z"/>
<path class="st5" d="M43.1,35.3c-0.2-0.2,0-0.6-0.2-0.9c-0.1-0.1-0.2-0.1-0.3-0.2c0,0,0,0,0,0c0.2,1,0.2,2.1,0.8,3
	c0.1-0.2,0.1-0.3,0.2-0.5C43.3,36.3,43.2,35.8,43.1,35.3C43.1,35.3,43.1,35.3,43.1,35.3z"/>
<path class="st5" d="M52.7,48.4c-0.1,0.1-0.2,0.2-0.2,0.3c0,0,0,0.1-0.1,0.1c-0.3,0.5-0.6,1-0.8,1.5c-0.3,0.7-0.6,1.5-0.9,2.3
	c0,0.1-0.1,0.2-0.1,0.3c0-0.1,0-0.3,0-0.4c0-1.5,0-2.9-0.1-4.4c-0.2-0.3-0.2-0.6-0.5-0.9c-0.1-0.1-0.2-0.3-0.2-0.5
	c0-0.2,0-0.3-0.2-0.5c0-0.1-0.1-0.1-0.2-0.1c0,0.3,0,0.6,0,0.8c0.1,1.7,0,3.3,0,5c0,1.6,0,3.3,0.3,4.9c0-0.1-0.1-0.2-0.1-0.3
	c-0.5-0.7-0.8-1.3-0.9-2c-0.3-1.6-0.3-3.2-0.6-4.8c0-0.2-0.1-0.4-0.1-0.6c-0.3-0.1-0.5-0.5-0.2-0.8c-0.1,0-0.2-0.1-0.2-0.1
	c0-0.1,0-0.1,0.1-0.2c-0.1-0.1-0.1-0.1-0.1-0.2c-0.1,0-0.1-0.1-0.2-0.1s-0.2,0-0.2-0.1C47,47.8,47,47.6,47,47.4
	c-0.1,0-0.2,0.1-0.2,0.1c0,0.1,0,0.2,0.1,0.3c0,0.2,0.1,0.4,0.1,0.6c0,0.2,0.1,0.5,0.1,0.8c0,0.3,0.1,0.6,0.2,0.9
	c0.2,1.6,0.2,3.2,0.4,4.8c0.2,1.6,1.5,2.8,1.8,4.4c0.1,0.8,0.2,1.5,0.3,2.3l0,0c0,1.5,0.1,3,0,4.5c-0.2,3.1-0.2,6.2-0.4,9.3
	l-0.2,2.4c0.5-0.1,1.1-0.1,1.6-0.1c0.1-2.3,0.2-4.6,0.2-5.9c0-1.9,0-3.7,0.1-5.6c0-1.5-0.1-3-0.1-4.5H51c0-0.3-0.1-0.6-0.1-0.9
	c0-0.3,0-0.7,0-1c0-0.6,0.5-1.1,0.6-1.7c0.2-1.6,0.4-3.1,0.6-4.7c0-0.1,0-0.2,0-0.3c-0.1-0.1-0.1-0.2-0.3-0.3c-0.1,0-0.3,0-0.4,0
	c0.2-0.8,0.6-1.6,1-2.4c0.2-0.4,0.4-0.8,0.6-1.2c0-0.1,0.1-0.1,0.1-0.1c-0.1-0.2-0.1-0.3-0.3-0.4C52.8,48.5,52.7,48.4,52.7,48.4
	L52.7,48.4z M50.9,55.6C50.9,55.6,50.9,55.5,50.9,55.6c0.1-0.8,0.2-1.5,0.4-2.3C51.1,54,51,54.8,50.9,55.6z"/>
<path class="st5" d="M47.7,33.4c-0.1,0-0.2,0-0.3,0c-0.1,0-0.1,0-0.2,0c-0.1,0.6-0.3,1.3-0.4,1.9c0.2,0.2,0.3,0.4,0.5,0.6
	C47.4,35,47.6,34.2,47.7,33.4z"/>
<path class="st5" d="M46,40.4c0.1-0.1,0.1-0.3,0.1-0.4c0-0.2,0.2-0.3,0.3-0.5c0-0.3,0-0.7,0.1-1c0-0.1,0.1-0.2,0.1-0.3
	c0.1-0.4,0.2-0.8,0.3-1.1c-0.1,0-0.2-0.1-0.2-0.1c-0.1,0-0.2-0.1-0.3-0.2c-0.2,0.5-0.3,1.1-0.5,1.6c-0.1,0.4-0.2,0.9-0.2,1.3
	c0,0.2,0,0.4,0,0.6c0,0.1,0,0.2,0,0.2c0,0,0,0,0,0c0.1,0,0.2-0.1,0.2-0.1C46,40.4,46,40.4,46,40.4L46,40.4z"/>
<path class="st5" d="M46.3,42.4c-0.1,0.1-0.2,0.2-0.3,0.3l0.3-0.1l0.1,0h0c0,0,0-0.1,0-0.1c0,0,0-0.1,0-0.1
	C46.4,42.3,46.4,42.4,46.3,42.4L46.3,42.4z"/>
<path class="st5" d="M50.9,26.9c0.1,0,0.1,0.1,0,0.2l0,0c0,0,0,0,0,0c0,0,0,0,0,0c0,0,0.1,0.1,0.1,0.1c0,0,0,0,0,0.1
	c0.1,0.2,0.1,0.4,0,0.6c0,0.1-0.1,0.2-0.1,0.2c0,0,0,0.1-0.1,0.1c0.1,0.7,0.1,1.5,0,2.2c-0.2,1.2-0.4,2.4-0.5,3.6c0.1,0,0.2,0,0.2,0
	c0.1,0,0.3,0,0.4,0c0-0.3,0.1-0.6,0.1-0.9c0.1-0.5,0.1-1.1,0.2-1.6c0-0.3,0.1-0.7,0.1-1c0.1-1,0.1-2-0.1-3c-0.1-0.3-0.2-0.6-0.3-0.9
	c0,0-0.1-0.1-0.1-0.2c0-0.1-0.1-0.2-0.1-0.2c-0.1-0.2-0.2-0.3-0.5-0.4c0.1,0.3,0.2,0.7,0.3,1C50.8,26.9,50.9,26.9,50.9,26.9
	L50.9,26.9z"/>
<path class="st5" d="M50.8,27.4L50.8,27.4c0-0.1,0.1-0.1,0.1-0.2c-0.1-0.1-0.2-0.2-0.2-0.2C50.7,27.1,50.8,27.3,50.8,27.4L50.8,27.4
	z"/>
<path class="st5" d="M50.4,42.5c0-0.1,0-0.2,0-0.4c-0.1-0.1-0.2-0.1-0.3-0.1C50.1,42.1,50.1,42.3,50.4,42.5
	C50.3,42.4,50.3,42.5,50.4,42.5L50.4,42.5z"/>
<path class="st5" d="M62.2,49.2c0.1-0.4,0.3-0.8,0.4-1.2c-0.1,0-0.3-0.1-0.4-0.1c0,0,0,0,0,0c-0.1-0.1-0.2-0.1-0.3-0.2
	c-0.2,0.5-0.4,1.1-0.6,1.6c0,0.1-0.1,0.2-0.1,0.3c0-0.1,0-0.2,0-0.3c0-0.9,0-1.7,0-2.6c-0.1-0.1-0.3-0.2-0.4-0.3
	c-0.1-0.1-0.2-0.4-0.4-0.4c-0.1,0-0.2,0.1-0.3,0.2c0,0,0,0,0,0c0,0.8-0.1,1.5-0.1,2.3c-0.1,1.8,0,3.6,0.3,5.4
	c-0.1-0.1-0.1-0.2-0.2-0.3c-0.5-0.7-0.9-1.3-1-2.1c-0.3-1.6-0.3-3.3-0.6-5c-0.1,0-0.2-0.1-0.2-0.1c-0.4-0.3-0.2-0.9-0.6-1.3
	c-0.2-0.2-0.3-0.4-0.3-0.6c0,0,0-0.1,0-0.1c0-0.1,0-0.1,0-0.2c0-0.1-0.1-0.2-0.2-0.3c0,0,0,0,0,0l0,0l0,0c-0.2,0.2-0.4,0.4-0.6,0.6
	c0,0,0,0-0.1,0.1c0.1,0,0.2,0.1,0.3,0.1c0.1,0,0.1,0,0.1,0.1c0-0.1,0.1-0.1,0.1-0.1c0,0,0.1-0.1,0.1-0.1c0,0,0,0.1,0,0.1
	c0,0.1,0,0.2,0.1,0.3c0.1,0.4,0.2,0.8,0.2,1.3c0,0.2,0.1,0.3,0.1,0.5c0.2,1.7,0.2,3.4,0.5,5.1c0.2,1.8,1.7,3,1.9,4.7
	c0.2,0.8,0.3,1.6,0.3,2.4h0c0,1.6,0.1,3.2,0,4.8c-0.2,3.3-0.2,6.6-0.4,9.9l-0.3,4.2c0.6,0.1,1.2,0.1,1.7,0.2
	c0.2-2.9,0.3-6.4,0.3-8.3c0-2,0-3.9,0.1-5.9c0-1.6-0.1-3.2-0.1-4.8h0.1c0-0.2-0.1-0.4-0.1-0.6c0-0.5,0-1,0-1.4
	c0.1-0.6,0.5-1.2,0.6-1.8c0.2-1.7,0.4-3.3,0.7-4.9c0-0.1,0-0.1,0-0.2c-0.2-0.2-0.2-0.5-0.4-0.6C62.4,49.2,62.3,49.2,62.2,49.2
	L62.2,49.2z"/>
<path class="st5" d="M57,41.1c0,0,0-0.1,0.1-0.1c0.2-0.2,0.1-0.4-0.1-0.6c-0.3-0.3-0.2-0.8-0.4-1c-0.1-0.1-0.2-0.1-0.3-0.2
	c0.1,0.5,0.2,1,0.4,1.5c0.1,0.2,0.1,0.4,0.1,0.6C56.8,41.3,56.9,41.2,57,41.1z"/>
<path class="st5" d="M51.9,27.6c0,0,0-0.1,0-0.1c0-0.1-0.1-0.2-0.1-0.2c0,0.1,0,0.1,0.1,0.2C51.8,27.5,51.9,27.6,51.9,27.6
	L51.9,27.6z"/>
<path class="st5" d="M54.5,33.4c-0.1-0.1-0.2-0.2-0.2-0.2c-0.9-0.9-0.8-2.3-1.2-3.5c-0.1-0.3-0.2-0.6-0.3-0.9
	c-0.1,0-0.2-0.1-0.4-0.1c0.1,0.3,0.2,0.7,0.3,1.1c0.3,1.2,0.2,2.7,1.2,3.7c0.1,0.1,0.1,0.1,0.2,0.2c0.3,0.3,0.7,0.7,0.9,1.1
	c0,0,0.1,0,0.1,0c0-0.3-0.2-0.8-0.3-1C54.7,33.7,54.6,33.5,54.5,33.4L54.5,33.4z"/>
<path class="st5" d="M63.9,45.3c0.1-0.2,0.3-0.4,0.5-0.6C64,44.8,63.8,45.1,63.9,45.3z"/>
<path class="st5" d="M68.4,39.8C68.4,39.8,68.4,39.8,68.4,39.8c-0.3,0.4-0.5,0.6-0.8,0.9c-0.3,0.3-0.7,0.7-1.1,1c0,0,0,0,0,0
	c0,0,0.1,0,0.1,0c0.2,0,0.3,0.1,0.4,0.2c0,0,0.1-0.1,0.1-0.1c0.4-0.3,0.7-0.7,1-1.1c0.2-0.2,0.3-0.4,0.5-0.6
	c0.1-0.1,0.2-0.3,0.2-0.4c-0.1,0-0.1,0.1-0.2,0.1C68.6,39.8,68.5,39.8,68.4,39.8L68.4,39.8z"/>
<path class="st5" d="M58.2,27.5c-0.2,0.1-0.3,0.2-0.5,0.2c0,0.2,0,0.4-0.1,0.5c0.2-0.1,0.3-0.1,0.5-0.1
	C58.2,27.9,58.2,27.7,58.2,27.5L58.2,27.5z"/>
<path class="st5" d="M57.1,33.7c0.1-0.3,0.2-0.7,0.3-1c-0.2,0-0.4-0.2-0.6-0.3c-0.1,0.3-0.2,0.5-0.2,0.8c0.1,0,0.2,0.1,0.3,0.1
	C56.9,33.5,57,33.6,57.1,33.7L57.1,33.7z"/>
<path class="st5" d="M61.3,13.7c0-0.1,0-0.1,0-0.2c-0.1-0.7-0.2-1.4-0.3-2.1c-0.1,0-0.1,0-0.1-0.1c0,0-0.1,0-0.1,0
	c0.1,0.8,0.2,1.6,0.2,2.4C61.1,13.7,61.2,13.7,61.3,13.7z"/>
<path class="st5" d="M61.8,28.1C61.8,28.1,61.8,28.1,61.8,28.1c0.1-0.4,0.2-0.8,0.2-1.2c0.1-0.3,0.1-0.6,0.1-0.9c0-0.1,0-0.2,0-0.3
	C62.1,25.8,62,25.9,62,26c0,0.1,0,0.2,0,0.2c0,0.2,0,0.4-0.2,0.5c0,0,0,0,0,0c-0.1,0.1-0.2,0.1-0.4,0.1c-0.1,0.5-0.2,0.9-0.2,1.3
	C61.4,28.2,61.6,28.2,61.8,28.1L61.8,28.1z"/>
<path class="st5" d="M60,40.3c0.2,0,0.4,0.1,0.6,0.1c0.1,0,0.3,0,0.4,0.1c0-0.8,0-1.5,0-2.3C60.7,38,60.4,38,60,38
	c0,0.6-0.1,1.2-0.1,1.8C60,39.9,60,40.1,60,40.3L60,40.3L60,40.3L60,40.3z"/>
<path class="st0" d="M74.7,32.8c-0.6-1.1-2.7,0.5-2.9-1.2c0,0,0,0,0,0c0-0.2,0.1-0.4,0.1-0.5c0.2-0.4,0.5-0.8,0.6-1.2
	c0.2-0.5,0.2-1.4-0.1-1.9c-0.2-0.4-1.2-0.6-1.2-1c-0.1-0.6,0.2-1.3,0.2-2c0-0.9-0.3-1.2-0.6-1.9c-0.2-0.5-0.2-1.4-0.8-1.5
	c0,0,0,0,0,0c0,0,0,0,0,0c0,0,0,0,0,0c0,0,0,0,0-0.1c-0.1-0.5-0.8-0.6-1.1-1.1c-0.3-0.4-0.3-1.2-0.8-1.5c-0.6-0.4-1.3-0.1-2-0.2
	c-0.6,0-1.1-0.3-1.6-0.6c-0.2-0.1-0.3-0.3-0.4-0.5c0.3-0.3,0.8-0.1,1.1-0.4c0.1-0.1,0.1-0.3,0.2-0.4c0.1,0,0.3,0,0.4-0.1
	c0.3-0.1,0.4-0.2,0.6-0.5c0.3-0.3,0.7-0.4,1.1-0.3c0.3,0,1.2,0,1.4-0.4c0.2-0.3-0.1-0.6-0.1-0.9c-0.3-1.1,0.2-1,1.1-1.6c0,0,0,0,0,0
	c0.6-0.4,2.6-1,2.2-1.9c0-0.9,0.1-2.1-0.6-2.6c0-0.3-0.3-0.5-0.6-0.6c-0.3-0.1-0.6-0.2-0.9-0.2c-0.6,0-1.3,0-1.6-0.2
	C68,6.5,68.3,5.7,68,5c-0.2-0.8-0.9-0.5-1.1,0.1c-0.3,1.1-0.5,0.9-1.4,1.4c-0.4,0.3-0.7,0.7-1.1,0.8c-0.3,0.1-0.7,0.1-1,0
	C63.2,7.2,63,7,63,6.7c0-0.2,0.4-0.6,0.4-0.9c0.1-0.3-0.2-0.5-0.2-0.8c0.1-0.6,0.7-1,0.1-1.5c-0.1,0,0.5-0.5,0.5-0.6
	c0.2-0.1,0.2-0.2,0.3-0.4c0.1-0.2,0.1-0.4,0-0.7c0.1-0.2,0.1-0.5,0.2-0.7c0.1-0.2,0.1-0.5,0.1-0.7c-0.2-0.5-0.8-0.5-1.2-0.4
	c-0.6,0.2-1.1,0.7-1.7,0.7c-0.2,0-0.5,0-0.8,0c-0.1,0-0.1,0-0.2,0c-0.1,0-0.2,0-0.3,0.1C60,1,59.9,1.4,59.7,1.7
	c-0.3,0.6-0.9,1-1.5,1.1c-0.7,0.1-1.3,0.3-1.8-0.1c-0.3-0.2-0.5-0.5-0.8-0.6c-0.6-0.3-1.2,0.2-1.3,0.8C54,3.3,54.2,3.9,54,4.2
	c-0.2,0.3-0.6,0.3-0.9,0.3c-0.9-0.1-1.8,0.4-2.6,0.1c-0.4-0.2-0.8-0.5-1.3-0.5c-0.5-0.1-1,0.1-1,0.6c0,0.5,0.4,0.9,0.3,1.4
	c-0.1,0.6-1.4,0.8-2.1,1.1C46.2,7.3,46,7.3,46,7.6c0,0.2,0.2,0.3,0.3,0.4c0.2,0.2,0.4,0.4,0.6,0.6c0.2,0.2,0.4,0.3,0.6,0.5
	c0,0.2,0,0.3-0.1,0.5c-0.6,1.4-1.3,0.8-2.5,0.8c0.2,0.5,0.3,1,0.5,1.5c-0.1,0-0.1,0.1-0.2,0.2l0,0c-0.1,0.3,0,0.6,0,0.8
	c0.1,0.4-0.1,0.8-0.4,0.9c-0.3,0.1-0.6,0-0.9,0c-0.5-0.1-1-0.3-1.5,0c-0.2,0.1-0.5,0.2-0.7,0.4c0,0-0.1,0.1-0.2,0.1c0,0,0,0.1,0,0.1
	c0.1,0.2,0.7,0,1,0.2l0,0c0.5,0.2,0.9,0.5,1.2,0.9c0.6,0.8-0.2,0.8-1,0.8c-0.4,0-0.8,0-1,0.1c-0.5,0.2-0.5,0.6-0.2,1
	c0,0.1,0.1,0.1,0.2,0.2c0.6,0.5,1.3,0.8,1.9,1.4c0.2,0.2,0.4,0.5,0.7,0.8c0.1,0.1,0.2,0.1,0.3,0.1c0,0.1,0,0.2,0,0.3
	c0,0.2-0.2,0.2-0.2,0.3c-0.4,0.3-1.2,0.2-1.7,0.6c-0.1,0.1-0.2,0.1-0.2,0.2c-0.6,1.1,1.5,0.8,2.3,0.9c0,0,0.1,0,0.1,0
	c0.3,0,0.9,0.1,1.3,0.3c0.5,0.2,0.8,0.4,0.7,0.8c0,0.1-0.1,0.2-0.3,0.4c-0.2,0.2-0.4,0.3-0.6,0.4c-0.3,0.1-0.6,0.1-0.9,0.1
	c-0.4,0-0.8-0.1-1.1-0.2c-0.4-0.1-0.9-0.1-1.4,0c-0.6,0.1-1.1,0.3-1.4,0.8c-0.3,0.6-0.2,0.6,0.1,0.6c0,0,0,0,0,0
	c0.1,0,0.3,0,0.5,0.1c0,0,0,0,0,0c-0.2,0.1-0.5,0.2-0.2,0.4c0.2,0.1,0.8,0.1,0.5,0.4c-0.1,0.1-0.4,0.2-0.6,0.2
	c-0.1,0.1-0.2,0.2-0.3,0.2c0,0-0.1,0.1-0.1,0.1c0,0,0,0,0,0c0,0,0,0.1-0.1,0.1c-0.1,0.1-0.1,0.2-0.1,0.3c0,0,0,0.1,0,0.1
	c0,0,0,0,0,0c0,0,0,0,0.1,0c0,0,0,0,0.1,0c0.1,0,0.1,0,0.2-0.1c0,0,0,0,0,0c0.1-0.1,0.1-0.1,0.2-0.2c0,0,0.1,0,0.1,0
	c0.3-0.1,0.7,0,1,0c0.2,0,0.5,0.1,0.7,0.2c0.2,0,0.3,0.1,0.5,0.1c0.4,0.1,0.9,0.2,1.4,0.3c0.2,0,0.5,0.1,0.7,0
	c0.3-0.1,0.7-0.7,1-0.9c0.1-0.1,0.2-0.1,0.4-0.2c0.1,0,0.1-0.1,0.2-0.1c0.3-0.2,0.7-0.3,1.2-0.4c0.6-0.2,1.2-0.3,1.5-0.2
	c0,0,0,0,0,0c0,0,0,0,0,0c0.3,0.1,0.4,0.2,0.5,0.4c0,0.1,0.1,0.1,0.1,0.2c0,0,0.1,0.1,0.1,0.2c0,0,0,0,0,0c0.3,0.3,0.5,0.3,0.7,0.5
	c0,0.1,0.1,0.1,0.1,0.2c0,0,0,0.1,0,0.1c0,0.3-0.1,0.7,0.3,1c0.1,0,0.1,0,0.2,0.1c0.1,0,0.2,0.1,0.4,0.1c0.5,0,1.1-0.3,1.6,0.1
	c0.3,0.3,0.1,0.8,0.3,1c0.2,0.2,0.6,0.1,0.8,0.4c0,0,0,0.1,0,0.1c0.2,0.5-0.5,1.8-0.8,2.2c0.2,0.2,0.2,0.5,0.2,0.7
	c0,0.1,0,0.3,0,0.4c0,0,0,0,0,0c0.1,0.2,0.3,0.7,0.3,1c0,0-0.1,0-0.1,0c-0.3,0.1-0.7-0.2-1-0.2c-0.5-0.1-1,0.4-1.2,1
	c-0.1,0.2-0.1,0.4-0.2,0.6c-0.3,0.3-0.7,0.2-1,0.4c-0.1,0.1-0.2,0.2-0.2,0.5c0,0.5,0.5,1,0.2,1.3c0,0.1-0.1,0.1-0.2,0.1
	c0,0-0.1,0.1-0.1,0.1c-0.2,0.1-0.5,0.2-0.7,0.3c-0.3,0.1-0.6,0.2-0.8,0.4c-0.1,0.1,0,0.2-0.1,0.2c0,0.1,0,0.2,0,0.4
	c0.1,0.2,0.3,0.4,0.6,0.5c0,0,0.1,0,0.1,0c0.1,0,0.2,0,0.2,0c0.2,0,0.5,0,0.7,0c0.1,0,0.2,0,0.2,0l0,0c0.1,0,0.1,0,0.2-0.1h0
	c0.2-0.1,0.3-0.2,0.5-0.3c0.1-0.2,0.2-0.6,0.5-0.7c0.2-0.1,0.4,0,0.7-0.1c0.2-0.1,0.2-0.1,0.4-0.1c0.3,0.1,0.5,0.2,0.8,0.1
	c0.1,0,0.2-0.1,0.3-0.1c0.2,0,0.3,0,0.5,0.1c0.1,0,0.2,0.1,0.2,0.1c0,0,0.1,0,0.1,0c0.1,0,0.2,0.1,0.3,0.1c0,0,0,0,0,0
	c0.1,0,0.2,0.1,0.3,0.2c0.2,0.2,0.1,0.7,0.4,1c0.2,0.2,0.3,0.4,0.1,0.6c0,0,0,0.1-0.1,0.1c-0.1,0.1-0.2,0.2-0.3,0.3
	c-0.2,0.2-0.5,0.4-0.8,0.4c-0.2,0-0.4,0-0.6,0c-0.3,0-0.7,0.1-0.9,0.4c-0.2,0.2-0.3,0.6-0.2,0.8c0.1,0.1,0.2,0.1,0.4,0.1
	c0.2,0,0.4,0,0.5,0.1c0,0,0.1,0,0.1,0c0.2,0,0.4,0.1,0.7,0.1c0.1,0.1,0.3,0.1,0.4,0.1c0.1,0,0.2,0,0.2,0.1c0.1,0,0.2,0.1,0.2,0.1
	c0.1,0.1,0.2,0.2,0.3,0.3l0,0c0,0,0,0,0,0c0.1,0.1,0.2,0.2,0.2,0.3c0,0.1,0,0.1,0,0.2c0,0,0,0.1,0,0.1c0,0.2,0.2,0.4,0.3,0.6
	c0.4,0.3,0.3,0.9,0.6,1.3c0.1,0.1,0.1,0.1,0.2,0.1c0.1,0.1,0.3,0.1,0.4,0.1c0.1,0.2,0.5,0.6,0.5,0.6c-0.2,0.3-0.5,0.9-0.1,1.2
	c0.1,0.1,0.3,0.1,0.5,0.1c0-0.8,0.1-1.5,0.1-2.3c0,0,0,0,0,0c0.1-0.1,0.2-0.2,0.3-0.2c0.2,0,0.3,0.3,0.4,0.4
	c0.1,0.1,0.2,0.2,0.4,0.3c0,0.9,0,1.7,0,2.6c0,0,0.1,0,0.1,0c0.2-0.5,0.3-1.1,0.6-1.6c0.1,0.1,0.2,0.2,0.3,0.2c0,0,0,0,0,0
	c0.1,0.1,0.2,0.1,0.4,0.1c-0.2,0.4-0.3,0.8-0.4,1.2c0.1,0,0.2,0,0.3,0c0.3,0.1,0.2,0.4,0.4,0.6c0.1,0.1,0.1,0.1,0.3,0.1
	c0.4,0.1,0.3-0.2,0.5-0.4c0.4-0.2,1.3-0.3,1.6-0.8c0.1-0.2,0-0.5,0.1-0.7c0.2-0.2,0.2-0.1,0.4-0.3c0.4-0.4,0.4,0,0.6-0.7
	c0.2-0.6,0-1.2,0.2-1.8c0.6,0.1,1,0,1.4-0.4c0.6-0.5,0.7-0.7,0.7-1.3c0-0.7,0-1-0.5-1.4c-0.3-0.2-0.6-0.3-0.9-0.4
	c0,0-0.1,0.1-0.1,0.1c-0.1-0.1-0.3-0.1-0.4-0.2c0,0-0.1,0-0.1,0c0,0,0,0,0,0c0,0,0,0-0.1,0c-0.8-0.2-1.9-1-2.6-1
	c0.2-0.7,0.2-0.7,0.7-0.8c0.5-0.1,0.9,0.2,1.2-0.4c0.3,0.1,0.4,0.1,0.7,0.2c0,0.5,0.5,0.9,1.1,1.1c0.2-0.2,0.5-0.5,0.8-0.8
	c0,0,0-0.1,0.1-0.1c0.1,0,0.2,0,0.3,0s0.1,0,0.2-0.1c-0.1,0.1-0.2,0.3-0.2,0.4c-0.2,0.2-0.3,0.4-0.5,0.6c0.5-0.1,0.9-0.3,1-1
	c0.4,0.1,0.7,0.5,0.8,0.9c0,0,0.1,0.1,0.1,0.1c0.9,0,1.6-0.6,1.8-1.4c0.5-1.4-0.6-1.3-1.6-2c-0.1,0-0.1-0.1-0.2-0.1c0,0,0,0.1,0,0.1
	c0,0-0.1,0-0.1-0.1c0,0-0.1,0-0.1-0.1c0,0,0,0,0,0c0,0,0-0.1,0.1-0.1c-0.3-0.3-0.7-0.6-0.7-1c0,0,0.5-0.9,0.5-0.9c0.1,0,0.2,0,0.2,0
	c0.1,0,0.2,0,0.4,0.1c0.1-0.7,0.2-1.3,0.3-2c0-0.1,0-0.1,0.1-0.2c0.1,0,0.1,0,0.2,0c0,0.1-0.1,0.2-0.1,0.3c-0.1,0.7-0.2,1.4-0.3,2
	c0.3,0.2,0.7,0.5,0.9,0.5c-0.1,0.1-0.1,0.1-0.2,0.2c-0.2,0-0.5,0-0.5,0.3c0,0.7,0.9,1.1,1.6,1.1c0.2,0,0.3,0,0.4,0
	c0.9-0.2,0.7-0.9,0.5-1.7c-0.3-1.1-0.5-0.8,0.6-1.2C74.6,34.1,75.2,33.7,74.7,32.8L74.7,32.8z M60.6,40.4c-0.2,0-0.4-0.1-0.6-0.1
	l0,0l0,0c0-0.2,0-0.4,0-0.6c0-0.6,0-1.2,0.1-1.8c0.3,0,0.6,0,0.9,0.2c0,0.8,0,1.5,0,2.3C60.8,40.5,60.7,40.4,60.6,40.4L60.6,40.4z
	 M58.2,27.5c0,0.2,0,0.4,0,0.6c-0.2,0-0.3,0.1-0.5,0.1c0-0.2,0-0.4,0.1-0.5C57.9,27.7,58.1,27.6,58.2,27.5L58.2,27.5z M61.8,26.8
	C61.8,26.8,61.8,26.8,61.8,26.8c0.2-0.1,0.2-0.3,0.2-0.5c0-0.1,0-0.2,0-0.2c0-0.1,0.1-0.2,0.2-0.3c0,0.1,0,0.2,0,0.3
	c0,0.3-0.1,0.6-0.1,0.9c-0.1,0.4-0.1,0.8-0.2,1.2c0,0,0,0-0.1,0c-0.2,0.1-0.4,0.1-0.7,0.1c0.1-0.5,0.2-0.9,0.2-1.3
	C61.5,26.9,61.6,26.9,61.8,26.8L61.8,26.8z M61.3,13.5c0,0.1,0,0.1,0,0.2c-0.1,0-0.2,0-0.3,0c0-0.8-0.1-1.6-0.2-2.4c0,0,0.1,0,0.1,0
	c0.1,0,0.1,0,0.1,0.1C61.1,12.1,61.2,12.8,61.3,13.5z M57.4,32.7c-0.1,0.3-0.2,0.7-0.3,1c-0.1-0.1-0.2-0.3-0.2-0.3
	c-0.1-0.1-0.2-0.1-0.3-0.1c0.1-0.3,0.2-0.5,0.2-0.8C57,32.6,57.1,32.7,57.4,32.7L57.4,32.7z M63.9,45.3c-0.1-0.3,0.1-0.5,0.5-0.6
	C64.2,44.9,64,45.1,63.9,45.3z"/>
<path class="st0" d="M34,54.1L34,54.1c-0.1,0-0.1-0.1-0.2-0.1c0,0-0.1,0-0.1,0.1c0,0.2,0.3,0.3,0.5,0.2h0c0,0,0-0.1,0-0.1
	C34.1,54.2,34.1,54.2,34,54.1z"/>
</svg>
