<?xml version="1.0" encoding="utf-8"?>
<!-- Generator: Adobe Illustrator 28.1.0, SVG Export Plug-In . SVG Version: 6.00 Build 0)  -->
<svg version="1.1" id="Layer_1" xmlns="http://www.w3.org/2000/svg" xmlns:xlink="http://www.w3.org/1999/xlink" x="0px" y="0px"
	 viewBox="0 0 100 100" style="enable-background:new 0 0 100 100;" xml:space="preserve">
<g>
	<path d="M49.5,45c8.2,0,14.8-6.6,14.8-14.8s-6.6-14.8-14.8-14.8c-8.2,0-14.8,6.6-14.8,14.8S41.3,45,49.5,45z"/>
	<path d="M67.4,55.8c-1.4-1.9-7.4-8.9-17.3-8.9c-10.5,0-16.4,7.5-18,9.6c-5,6.8-10.9,16.3-10.9,16.3c-1.4,2-0.9,4.8,1.1,6.2
		c0.5,0.4,1.1,0.6,1.7,0.7c1.2,0.4,2.5,0.2,3.5-0.5l9.9-7.5c1.7-1.3,1.9-4,0.4-5.9c-1.2-1.5-3-2.1-4.5-1.7v-8.2l14.5,6.4v22.3h4.4
		V62.3l14.5-6.4v8.2c-1.6-0.4-3.4,0.2-4.6,1.7c-1.5,1.9-1.3,4.6,0.4,5.9l9.9,7.5c0.9,0.7,2.1,0.9,3.3,0.6c0.8-0.1,1.5-0.3,2.2-0.8
		c2-1.4,2.5-4.2,1.1-6.2C78.8,72.9,72.5,62.7,67.4,55.8z"/>
	<path d="M85,15C75.6,5.7,63.2,0.5,50,0.5C36.7,0.5,24.3,5.7,15,15C5.6,24.3,0.5,36.8,0.5,50S5.6,75.7,15,85
		c9.3,9.3,21.8,14.5,35,14.5c11.2,0,22.1-3.8,30.8-10.7c1.5-1.2,2.9-2.4,4.2-3.8c1.3-1.3,2.6-2.8,3.8-4.2
		C104.5,61.1,102.8,32.8,85,15z M85.2,78c-1.1,1.3-2.2,2.6-3.4,3.8s-2.5,2.4-3.8,3.4C69.8,91.7,59.9,95,50,95
		c-11.5,0-23.1-4.4-31.8-13.2c-17.5-17.5-17.5-46.1,0-63.7C26.9,9.4,38.5,5,50,5s23,4.4,31.8,13.2C98.1,34.5,99.3,60.3,85.2,78z"/>
</g>
</svg>
